<?xml version="1.0" encoding="UTF-8"?>
<svg id="Capa_1" data-name="Capa 1" xmlns="http://www.w3.org/2000/svg" viewBox="0 0 1269.94 467.5">
  <defs>
    <style>
      .cls-1 {
        fill: #dc0a1e;
      }

      .cls-2 {
        fill: #dc0b1e;
      }

      .cls-3 {
        fill: #fef8ea;
      }

      .cls-4 {
        fill: #00873a;
      }

      .cls-5 {
        fill: #fefefe;
      }

      .cls-6 {
        fill: #b6111d;
      }
    </style>
  </defs>
  <path class="cls-1" d="M956.81,410.21c-4.52-6.83-5.9-16.43-6.17-24.56-69.74,15.18-141.31,24.62-212.03,28.58l-4.8-1.02c-3.72,1.25-7.52,2.32-11.44,2.69-46.19,4.28-97.33,3.35-143.88,2.14-17.77-.46-35.52-1.13-53.25-2.14-3.92-.36-7.71-1.44-11.43-2.69l-1.72,1.28c-71.63-5.68-144.58-12.7-215.08-28.84,0,6.82-1.24,13.85-5.2,19.57-68.04-15.83-135.07-36.26-200.25-61.25-21.6-8.28-52.46-18.97-72.08-29.92-17.48-9.75-24.35-30.13-15.86-48.51C50.62,187.04,90.27,103.75,137.64,25.54c9.47-15.63,19.55-24.79,39.41-22.07C481.83,122.28,827.81,85.1,1136.57.47c16.33-2.63,31.91,5.91,38.73,20.75l92.53,252.47c10.52,38.31-20.22,46.55-48.05,57.98-84.42,34.69-173.8,59.13-262.97,78.53Z"/>
  <path class="cls-4" d="M513.81,413.21c.78.13,1.95.48,1.94,1.04-.11,6.04-1.56,45.89-2.87,47.9-1.73,2.65-6.04,1.73-9.07,1.07-12.91.25-29.33-1.83-42.5-3-58.57-5.24-116.72-14.66-174.51-25,1.6-9.98,3.08-20.08,5-30,1.36-7,2.9-14.08,4.51-21.01,70.84,14.46,142.85,23.22,215.06,27.98,1.28.08,2.28,1.03,2.43,1.04Z"/>
  <path class="cls-3" d="M733.81,413.21l2.05.8,2.88,47.2c2.15-.15,3.86-.05,5.07,2-1.04,1.66-3.79,1-5.49,1.02-52.42.66-104.37,4.2-157.06,3.03-23.94-.53-47.91-2.77-71.97-3.03-1.69-.02-4.45.64-5.49-1.02,2.33-.04,4.68.04,7.01,0l2.99-50.01c70.75,4.52,149.13,4.51,220,0Z"/>
  <path class="cls-6" d="M733.81,413.21c25.04-1.59,51.28-4.26,76.5-7,47.25-5.14,94.4-12.74,140.96-22.02,1.96,8.56,4.01,17.38,5.54,26.02s2.48,16.72,4,25c-54.85,9.68-109.98,18.67-165.51,24-16.14,1.55-35.56,3.93-51.5,4-2.31.01-4.65.09-6.95-.05l-3.05-49.95Z"/>
  <path class="cls-5" d="M622.52,192.49c-4.1-4.99-15.05-3.54-15.36-14.94-.56-20.24,36.13-17.11,49.04-15.23,11.93,1.74,24.78,4.95,23.67,19.44-.96,12.47-11.05,8.6-17.42,13.58-3.37,2.63-7.12,21.38-8.32,26.68-7.27,32.17-10.29,66.92-19.6,98.4-4.94,16.73-14.8,42.64-36.63,26.2-13.62-10.26-34.63-64.68-43.23-82.77-1.4-2.95-10.13-22.45-11.38-22.68-1.34-.25-2.09,0-2.96,1.06-1.25,1.51-6.46,27.57-7.2,31.8-1.46,8.36-5.49,28.68-2.56,35.93,1.96,4.84,11.1,6.81,12.8,15.21,4.63,22.81-35.19,20.37-48.6,17.59-11.69-2.42-27.06-9.53-22.19-24.27,2.94-8.92,13.02-6.41,17.25-11.75,2.73-3.44,5.79-14.11,7.24-18.76,7.22-23.07,13.69-54.42,16.57-78.43.66-5.55,2.41-16.63.96-21.63-1.67-5.72-15.33-4.2-16.61-15.47-1.73-15.29,16.87-19.54,28.27-20.28,33.22-2.16,39.57,4.12,54.72,31.38,10.86,19.53,18.98,44.38,30.3,62.7,1.34,2.17,3.08,6,5.59,2.53,1.49-2.05,5.33-29.45,5.82-34.18s2.44-18.92-.17-22.1Z"/>
  <path class="cls-5" d="M198.07,239.96c2.08,2.19,20.62,7.53,24.12,7.21,14.55-1.36,25.15-26.05,39.68-21.51s3.25,33.26-1.89,42.22c-4.41,7.7-16.12,22.94-25.68,23.39-5.75.27-12.45-6.35-18.13-8.92-26.15-11.84-58.89-14.04-85.62-23.38-11.5-4.02-21.34-11.14-15.25-24.77,4.22-9.44,11.73-8.1,18.76-11.24,2.95-1.32,11.84-20.68,13.92-25.08,4.98-10.51,9.8-21.95,14.29-32.71,4.16-9.97,18.34-41.82,18.57-50.52.16-6.31-4.27-6.43-7.56-10.43-7.54-9.16-1.81-22.84,10.01-24.02s60.56,13.14,70.84,20.16c8.32,5.69,10.36,16.34,3.06,23.73-8.01,8.11-14.92-1.8-22.23,8.77-10.69,15.46-26.46,61.27-32.43,80.57-1.62,5.22-8.11,22.69-4.47,26.51Z"/>
  <path class="cls-5" d="M347.81,293.21c-1.81-1.78-12.71,6.73-15.33,8.17-31.78,17.5-56.31,3.09-53.71-33.71,2.31-32.66,29.33-71.85,58.35-86.65,15.01-7.65,28.2-9.9,42.16,1.21,2.52,2,9.35,10.32,11.24,10.83,2.64.72,12.42-3.66,16.23-4.41,6.28-1.23,21.64-2.68,21.75,6.85l-25.62,85.33c-.9,9.69,10.97,3.44,8.48,15.43-3.69,17.77-41.12,29.09-56.27,23.16-2.7-1.06-7.28-4.73-7.28-7.72v-18.5Z"/>
  <path class="cls-5" d="M846.59,192.49c58.54-6.67,49.12,70.58,2.9,89.9-3.71,1.55-22.09,5.97-22.44,8.28-.42,2.8,4.44,8.38,7.06,9.74,17.31,8.95,35.27-18.78,43.95-18.01,7.84.69,11.73,13.21,10.31,19.87-1.3,6.07-11.21,15.86-16.03,19.97-27.88,23.72-83.06,32.38-98.55-9.5-18.06-48.85,20.44-114.28,72.8-120.24Z"/>
  <path class="cls-5" d="M1117.31,127.78c32.86.03,37.01,37.85,26.68,62.11-5.21,12.24-15.74,23.29-27.26,29.74-3.26,1.83-18.27,7.32-18.83,9.24-1.6,5.41,9.08,10.83,14.31,10.28,15.07-1.59,21.94-18.05,32.27-23.83,8.2-4.59,16.17,10.58,15.12,18.13-2.57,18.51-32.66,39.31-49.25,44.79-64.28,21.25-83.62-45-64.02-94.02,10.96-27.41,39.6-56.48,70.98-56.45Z"/>
  <path class="cls-5" d="M1008.47,167.56c20.67,19.25,15.19,84.71,4.2,109.01-21,46.45-89.79,60.82-98.74.02-2.12-14.41.85-39.43-3.39-51.61-3.47-9.96-10.11,1.01-15.23-5.77-12.43-16.47,19.23-35.62,31.52-40.48,17.76-7.03,28.44-8.43,31.86,13.11,3.46,21.73,1.16,51.37,6.36,71.64,3.21,12.51,16.99,11.06,23.76,2.23,13.24-17.28,8.97-44.07-1.19-61.8-6.04-10.55-23.1-25.6-7.74-36.13,7.81-5.36,21.25-7.05,28.59-.22Z"/>
  <path class="cls-5" d="M741.81,305.22c1.2,1.21,11.01-3.19,12.79,4.71,5.34,23.76-46.18,52.31-63.28,35.29-5.8-5.77-4.96-19.77-4.49-27.49,1.27-20.95,7.04-42.88,8.04-64.05-.81-7.6-13.34-1.89-14.12-12.98-1.41-19.98,43.82-36.06,59.51-33.43,12.89,2.16,8.42,27.14,7.55,36.43-.72,7.74-8.41,59.08-6,61.51Z"/>
  <path class="cls-5" d="M732.31,154.78c33.02.61,20.67,32.39-1.45,42.97-14.99,7.17-46.08,10.9-43.06-14.07,2.01-16.64,29.6-29.18,44.52-28.9Z"/>
  <path class="cls-1" d="M374.67,209.35c6.64,4.15-9.14,32.62-12.45,37.77-3.72,5.8-16.64,23.01-23.31,23.61-10.22.92-.98-20.57,1.04-24.88,3.88-8.32,20.51-33.45,28.79-36.2,1.35-.45,4.89-.95,5.92-.31Z"/>
  <path class="cls-1" d="M835.51,221.33c6.1-1.6,5.6,13.1,5.29,16.38-.56,6.03-6.88,26.24-15.36,23.4-2.45-.82-1.89-10.86-1.67-13.43.47-5.57,5.98-24.84,11.74-26.35Z"/>
  <path class="cls-2" d="M1097.45,159.29c3.79-.64,6.08,9.6,6.35,12.43.74,7.75-1.01,23.36-8.06,27.93-2.49,1.62-3.5,2.35-5.37-.5-3.98-6.07-.53-38.56,7.08-39.85Z"/>
</svg>