<?xml version="1.0" encoding="UTF-8"?>
<svg id="Capa_1" data-name="Capa 1" xmlns="http://www.w3.org/2000/svg" viewBox="0 0 542.16 726">
  <defs>
    <style>
      .cls-1 {
        fill: #2f463f;
      }

      .cls-2 {
        fill: #c3a94b;
      }

      .cls-3 {
        fill: #53927b;
      }

      .cls-4 {
        fill: #295551;
      }

      .cls-5 {
        fill: #35523b;
      }

      .cls-6 {
        fill: #3d6d59;
      }

      .cls-7 {
        fill: #4b5e48;
      }

      .cls-8 {
        fill: #0a4874;
      }

      .cls-9 {
        fill: #988e4a;
      }

      .cls-10 {
        fill: #b39f4b;
      }

      .cls-11 {
        fill: #535636;
      }

      .cls-12 {
        fill: #478981;
      }

      .cls-13 {
        fill: #dcad0d;
      }

      .cls-14 {
        fill: #3c4e50;
      }

      .cls-15 {
        fill: #76af71;
      }

      .cls-16 {
        fill: #30473f;
      }

      .cls-17 {
        fill: #588d64;
      }

      .cls-18 {
        fill: #2a5751;
      }

      .cls-19 {
        fill: #488679;
      }

      .cls-20 {
        fill: #707449;
      }

      .cls-21 {
        fill: #bdb95a;
      }

      .cls-22 {
        fill: #a38168;
      }

      .cls-23 {
        fill: #868b24;
      }

      .cls-24 {
        fill: #687049;
      }

      .cls-25 {
        fill: #4c897b;
      }

      .cls-26 {
        fill: #78422e;
      }

      .cls-27 {
        fill: #585634;
      }

      .cls-28 {
        fill: #475b48;
      }

      .cls-29 {
        fill: #b48a6c;
      }

      .cls-30 {
        fill: #497b5e;
      }

      .cls-31 {
        fill: #363e3d;
      }

      .cls-32 {
        fill: #204a4d;
      }

      .cls-33 {
        fill: #495c48;
      }

      .cls-34 {
        fill: #4d8060;
      }

      .cls-35 {
        fill: #435848;
      }

      .cls-36 {
        fill: #113a48;
      }

      .cls-37 {
        fill: #43745c;
      }

      .cls-38 {
        fill: #cf8f18;
      }

      .cls-39 {
        fill: #5f9467;
      }

      .cls-40 {
        fill: #39553b;
      }

      .cls-41 {
        fill: #dd0a1e;
      }

      .cls-42 {
        fill: #588c65;
      }

      .cls-43 {
        fill: #0a4877;
      }

      .cls-44 {
        fill: #63722e;
      }

      .cls-45 {
        fill: #113847;
      }

      .cls-46 {
        fill: #123946;
      }

      .cls-47 {
        fill: #4b7d5f;
      }

      .cls-48 {
        fill: #2e5b53;
      }

      .cls-49 {
        fill: #0a4773;
      }

      .cls-50 {
        fill: #fee000;
      }

      .cls-51 {
        fill: #f8f9f9;
      }

      .cls-52 {
        fill: #103848;
      }

      .cls-53 {
        fill: #a5964a;
      }

      .cls-54 {
        fill: #fff;
      }

      .cls-55 {
        fill: #0c4367;
      }

      .cls-56 {
        fill: #87834a;
      }

      .cls-57 {
        fill: #fff9eb;
      }

      .cls-58 {
        fill: #143a48;
      }

      .cls-59 {
        fill: #568963;
      }

      .cls-60 {
        fill: #535637;
      }

      .cls-61 {
        fill: #7b7b4a;
      }

      .cls-62 {
        fill: #0a4978;
      }

      .cls-63 {
        fill: #e8c04c;
      }

      .cls-64 {
        fill: #404e3b;
      }

      .cls-65 {
        fill: #768028;
      }

      .cls-66 {
        fill: #275350;
      }

      .cls-67 {
        fill: #896f29;
      }

      .cls-68 {
        fill: #41725b;
      }

      .cls-69 {
        fill: #aa994a;
      }

      .cls-70 {
        fill: #666e49;
      }

      .cls-71 {
        fill: #234e4f;
      }

      .cls-72 {
        fill: #bf906e;
      }

      .cls-73 {
        fill: #96a85e;
      }

      .cls-74 {
        fill: #dd0b1f;
      }

      .cls-75 {
        fill: #727649;
      }

      .cls-76 {
        fill: #3a563a;
      }

      .cls-77 {
        fill: #ad866a;
      }

      .cls-78 {
        fill: #123b48;
      }

      .cls-79 {
        fill: #2a5752;
      }

      .cls-80 {
        fill: #b7111d;
      }

      .cls-81 {
        fill: #366456;
      }

      .cls-82 {
        fill: #548863;
      }

      .cls-83 {
        fill: #24504f;
      }

      .cls-84 {
        fill: #5c9166;
      }

      .cls-85 {
        fill: #2d5a53;
      }

      .cls-86 {
        fill: #747649;
      }

      .cls-87 {
        fill: #438581;
      }

      .cls-88 {
        fill: #fcde01;
      }

      .cls-89 {
        fill: #3a6958;
      }

      .cls-90 {
        fill: #fbdd01;
      }

      .cls-91 {
        fill: #e8b1b3;
      }

      .cls-92 {
        fill: #548a68;
      }

      .cls-93 {
        fill: #e9a578;
      }

      .cls-94 {
        fill: #ffe000;
      }

      .cls-95 {
        fill: #8d9022;
      }

      .cls-96 {
        fill: #0c4366;
      }

      .cls-97 {
        fill: #f4d404;
      }

      .cls-98 {
        fill: #34483e;
      }

      .cls-99 {
        fill: #3a413c;
      }

      .cls-100 {
        fill: #8d874a;
      }

      .cls-101 {
        fill: #356456;
      }

      .cls-102 {
        fill: #39726f;
      }

      .cls-103 {
        fill: #294940;
      }

      .cls-104 {
        fill: #376657;
      }

      .cls-105 {
        fill: #365048;
      }

      .cls-106 {
        fill: #42725b;
      }

      .cls-107 {
        fill: #465a48;
      }

      .cls-108 {
        fill: #fafbfb;
      }

      .cls-109 {
        fill: #0a4976;
      }

      .cls-110 {
        fill: #7d7d49;
      }

      .cls-111 {
        fill: #e6bf4c;
      }

      .cls-112 {
        fill: #355048;
      }

      .cls-113 {
        fill: #46775d;
      }

      .cls-114 {
        fill: #e99a66;
      }

      .cls-115 {
        fill: #265250;
      }

      .cls-116 {
        fill: #a4954b;
      }

      .cls-117 {
        fill: #e7bf4c;
      }

      .cls-118 {
        fill: #fdde01;
      }

      .cls-119 {
        fill: #324e48;
      }

      .cls-120 {
        fill: #366457;
      }

      .cls-121 {
        fill: #6ca674;
      }

      .cls-122 {
        fill: #3f6f5a;
      }

      .cls-123 {
        fill: #2d4a47;
      }

      .cls-124 {
        fill: #a5964b;
      }

      .cls-125 {
        fill: #25504f;
      }

      .cls-126 {
        fill: #8d7128;
      }

      .cls-127 {
        fill: #c6ab4b;
      }

      .cls-128 {
        fill: #414e3b;
      }

      .cls-129 {
        fill: #65a278;
      }

      .cls-130 {
        fill: #475453;
      }

      .cls-131 {
        fill: #77b071;
      }

      .cls-132 {
        fill: #c1272d;
      }

      .cls-133 {
        fill: #346256;
      }

      .cls-134 {
        fill: #478274;
      }

      .cls-135 {
        fill: #285451;
      }

      .cls-136 {
        fill: #4f8d7c;
      }

      .cls-137 {
        fill: #747749;
      }

      .cls-138 {
        fill: #0557a2;
      }

      .cls-139 {
        fill: #948b4a;
      }

      .cls-140 {
        fill: #40705b;
      }

      .cls-141 {
        fill: #5d9266;
      }

      .cls-142 {
        fill: #fbfcfc;
      }

      .cls-143 {
        fill: #808626;
      }

      .cls-144 {
        fill: #485453;
      }

      .cls-145 {
        fill: #676f49;
      }

      .cls-146 {
        fill: #336155;
      }

      .cls-147 {
        fill: #d3c10d;
      }

      .cls-148 {
        fill: #6c665c;
      }

      .cls-149 {
        fill: #fedf00;
      }

      .cls-150 {
        fill: #4d7f60;
      }

      .cls-151 {
        fill: #3d6e5a;
      }

      .cls-152 {
        fill: #d39117;
      }

      .cls-153 {
        fill: #103847;
      }

      .cls-154 {
        fill: #b5ad54;
      }

      .cls-155 {
        fill: #578b64;
      }

      .cls-156 {
        fill: #a29e1b;
      }

      .cls-157 {
        fill: #bbb014;
      }

      .cls-158 {
        fill: #0b4772;
      }

      .cls-159 {
        fill: #475d63;
      }

      .cls-160 {
        fill: #3273ba;
      }

      .cls-161 {
        fill: #555836;
      }

      .cls-162 {
        fill: #66742d;
      }

      .cls-163 {
        fill: #8e9022;
      }

      .cls-164 {
        fill: #408181;
      }

      .cls-165 {
        fill: #204b4d;
      }

      .cls-166 {
        fill: #586b31;
      }

      .cls-167 {
        fill: #8a854a;
      }

      .cls-168 {
        fill: #46785d;
      }

      .cls-169 {
        fill: #588b64;
      }

      .cls-170 {
        fill: #094a7c;
      }

      .cls-171 {
        fill: #68752d;
      }

      .cls-172 {
        fill: #244f4f;
      }

      .cls-173 {
        fill: #2f5c54;
      }

      .cls-174 {
        fill: #1b3e49;
      }

      .cls-175 {
        fill: #e4a1a3;
      }

      .cls-176 {
        fill: #a9a419;
      }

      .cls-177 {
        fill: #0a4875;
      }

      .cls-178 {
        fill: #3f5648;
      }

      .cls-179 {
        fill: #fddf00;
      }

      .cls-180 {
        fill: #084f89;
      }

      .cls-181 {
        fill: #c3b513;
      }

      .cls-182 {
        fill: #b9af15;
      }

      .cls-183 {
        fill: #f2d3d4;
      }

      .cls-184 {
        fill: #00883a;
      }

      .cls-185 {
        fill: #e9ddd5;
      }

      .cls-186 {
        fill: #25514f;
      }

      .cls-187 {
        fill: #717549;
      }

      .cls-188 {
        fill: #113947;
      }

      .cls-189 {
        fill: #609668;
      }

      .cls-190 {
        fill: #c4a94b;
      }

      .cls-191 {
        fill: #82804a;
      }

      .cls-192 {
        fill: #8e7763;
      }

      .cls-193 {
        fill: #5b6849;
      }

      .cls-194 {
        fill: #06c;
      }

      .cls-195 {
        fill: #123a48;
      }

      .cls-196 {
        fill: #526148;
      }

      .cls-197 {
        fill: #417c72;
      }

      .cls-198 {
        fill: #bbb114;
      }

      .cls-199 {
        fill: #42735b;
      }

      .cls-200 {
        fill: #fddf01;
      }

      .cls-201 {
        fill: #a3944a;
      }

      .cls-202 {
        fill: #40715b;
      }

      .cls-203 {
        fill: #b09d4b;
      }

      .cls-204 {
        fill: #fefefe;
      }

      .cls-205 {
        fill: #4a8b80;
      }

      .cls-206 {
        fill: #869aa2;
      }

      .cls-207 {
        fill: #224e4e;
      }

      .cls-208 {
        fill: #98971e;
      }

      .cls-209 {
        fill: #7c8427;
      }

      .cls-210 {
        fill: #9c904a;
      }

      .cls-211 {
        fill: #dbc70b;
      }

      .cls-212 {
        fill: #5e6949;
      }

      .cls-213 {
        fill: #3d8084;
      }

      .cls-214 {
        fill: #c7ab4b;
      }

      .cls-215 {
        fill: #2a5651;
      }

      .cls-216 {
        fill: #435c38;
      }

      .cls-217 {
        fill: #6ea46b;
      }

      .cls-218 {
        fill: #bda54b;
      }

      .cls-219 {
        fill: #133c48;
      }

      .cls-220 {
        fill: #fcfdfd;
      }

      .cls-221 {
        fill: #284747;
      }

      .cls-222 {
        fill: #545a56;
      }

      .cls-223 {
        fill: #2b5752;
      }

      .cls-224 {
        fill: #92894a;
      }

      .cls-225 {
        fill: #324d48;
      }

      .cls-226 {
        fill: #767d7c;
      }

      .cls-227 {
        fill: #5f9568;
      }

      .cls-228 {
        fill: #315f54;
      }
    </style>
  </defs>
  <path class="cls-41" d="M474.51,518.23c2.38,1.07,5.3,4.41,6.47,6.73l36.67,100.56c.92,8.43-2.16,12.86-9.38,16.45-9.15,4.55-20.9,8.61-30.63,12.07-26.49,9.43-53.77,16.89-81.33,22.54-1.93-2.12-2.62-6.11-2.27-8.87-26.27,4.95-52.93,9.07-79.64,10.93-.81.06-1.63-.04-2.46-.14s-1.65-.28-2.47-.47c-.94.31-1.88.6-2.85.82s-1.91.43-2.87.48c-24.36,1.36-49.1,1.01-73.45-.46-.97-.06-1.92-.27-2.89-.49s-1.92-.51-2.86-.82l-3.62.4c-26.96-1.16-53.77-5.3-80.35-9.76-.27,2.05-.71,4.05-1.31,6.01l-1.08.48c-27.15-6.22-53.84-14.49-79.76-24.59-6.33-2.47-25.63-9.46-29.55-13.63s-5.08-11.1-2.18-16.41c18.49-32.57,35.88-65.87,55.1-97.96,3.5-3.68,9.36-4.76,14.17-3.34l6.66,1.77c3.29.57,6.02,1.9,8.21,3.99.57-.24,1.01.06,1.44.48,4.6,0,10.17,2.08,13.91,4.8.62-1.31,2.01-.87,2.4.48.27-.47.59-.31.96.48,4.47-.27,9.17.96,12.95,3.36,1.51-1.42,3.48-.22,4.8.96,1-1.01,1.5-.87,1.92.48.65-1.26,2.99-.42,2.88.96,2.3-1.01,6.93-.44,8.64,1.44.96-1.23,2.54-.45,2.88.96,4.56-.59,9.36.28,13.43,2.4,1.25-1.14,2.48-.97,3.36.48,4.83-.72,9.93-.06,14.39,1.92,1.16-1.24,2.54-.95,3.36.48,8.14-.14,16.29.27,24.44,1.24,40.47,3.44,80.74-.29,120.98-4.29,2.06-.21,4.14-.03,6.19.17.53-1.45,2.16-1.25,2.88,0,6.94-2.45,14.71-3.66,22.07-3.36.78-1.08,1.79-1.25,2.88-.48,5.64-2.45,12.09-3.67,18.23-3.36-.01-1.4,1.2-1.7,1.92-.48.97-1.59,2.78-2.03,4.32-.96,1.13-1.43,2.73-1.95,4.32-.96,2.46-1.93,5.6-2.67,8.64-1.92.2-1.39,1.16-1.7,1.92-.48,3.17-2.16,7.26-2.99,11.04-2.4.66-1.31,1.44-1.73,2.4-.48.28-.76.68-.75.96,0-.17-1.35.96-2.02,1.92-.96,1.19-1.83,5.32-2.48,7.2-1.44.51-1.31,1.24-2.15,2.4-.96.87-1.77,5.08-2.53,6.72-1.44l1.44-.48c.39-.46.96-.84,1.44-.48,1.58-1.68,4.1-2.46,6.24-1.44,1.33-1.91,6.18-3.27,8.16-1.92,1.49-1.92,7.06-1.42,7.68.96Z"/>
  <path class="cls-153" d="M474.51,518.23c-2.65-1.19-4.94-1.3-7.68-.96l.41-2.11c6.16-13.58,12.42-27.11,18.78-40.6.85-3.1,1.77-6.32,3.36-9.12-.27-.75.33-2.03.96-2.4-.08-1.31.7-2.74,1.44-3.84.06-1.29.71-2.76,1.44-3.84-.36-.72-.26-1.85.48-2.4-.16-1.24-.12-2.47.12-3.69l4.52-15.98c-10.47,2.02-21.14,2.08-32.15.93-2.31-.24-24.9-3.42-25.06-5.6-.1-1.35.02-2,1.6-1.83,16.56,2.75,33.15,4.84,49.9,2.61,4.1-.55,10.61-2.29,4.1-2.03-20.76,4.14-41.54-.37-61.58-6.13l.02,1.82c4.29,0,4.42,4.01,4.48,7.35-.35,6.25-.89,12.47-1.62,18.67.61,6.3.98,12.6,1.12,18.91,1.76.81,2.34,1.36,3.06,3.11,1.15,2.82-.88,11.26-1.76,14.28-1.52,5.21-3.19,10.36-4.99,15.47,1.9,1.42,3.46,4.79,1.16,6.36.25,1.03.09,1.67-.48,1.92-.04.83.12,1.15.48.96-.27-.89-.11-1.37.48-1.44.42-2.75,2.35-5.09,5.79-7,6.93-12.24,16.03-24.09,27.81-32.09,1.58-2.15,3.02-4.41,4.31-6.78,1.68-2.3,4.3-5.78,7.37-4.23l4.43-5.15c1.58-2.26,6.59-3.5,5.94.06.61.27.45,1.44,0,1.92,0,1.23-.71,2.84-1.44,3.84-.04,1.14-.6,2.6-1.44,3.36.16.91-.22,1.84-.96,2.4-.62,3.24-1.83,6.66-3.36,9.6-1.5,5.95-5.56,10.24-9.92,14.4-2.88,10.47-8.27,21.04-16.29,28.45.28.84.21,1.5-.66,1.78-2.06.51-4.19.93-6.24,1.44-.54.08-.7.07-.48-.48l-.09-1.13c3.03-2.47,5.67-5.37,8.21-8.32,1.55-1.79,4.9-5.7,5.67-7.77.69-1.86-18.54,12.27-18.45,12.93-2.24,1.82-3.8,3.53-3.5,6.59l-.95.57c-.68.17-1.43.72-2.4.96l-.9-.54,1.7-15.01c-3.28,4.73-5.57,10.19-6.82,15.81l-1.19,1.19c-.38.09-1.19.79-1.92.96-.32-.33-.64-.33-.96,0-.8.19-1.61.3-2.4.48l-.57-1.56c2.88-6.49,4.85-13.05,5.93-19.7-1.02-.83-15.59,17.53-15.6,20.78.36,1.54.09,2.5-.8,2.88-.57.13-1.21.33-1.92.48l-1.14-.78c-.34-3.13-3.06-20.83-6.06-21.13-1.46-.14-1.39,19.73-.63,21.98l-.81,1.85c-1.43.3-2.87.67-4.32.96-1.28-.25-2.36-1.22-3.24-2.92.15,1.78-.21,3.08-1.08,3.88-.7.14-1.35.37-1.92.48-1.65-.13-1.16-4.08-.84-5.51,1.26-5.59,5.58-3.87,7.95-.2.17.1-.28-1.01-.48-1.33-.97-1.53-16.21-11.83-17.16-11.43-.62,4.13-1.66,8-3.1,11.61-6.51,4.86-4.41-11.77-4.04-14.61l-15.92-5.48c5.77,9.47,11.09,19.26,15.96,29.37l-.6.94c-.95.16-1.93.32-2.88.48-.84-.54-1.54-1.23-2.1-2.05-4.41-9.44-9.64-18.58-15.29-27.16-2.44-3.69-4.98-4.49-9.17-5.45-1.92-.44-11.91-1.95-13.05-1.32,3.23,7.37,7.14,14.52,11.73,21.45,1.71,3.17,7.42,14.06,6.32,16.98-.12.32-.3.62-.5.91-.9.12-1.98-.12-2.88,0l-1.3-1.47c-.92-3.79-2.36-7.42-4.08-10.91-5.22-8.65-9.89-17.54-14.01-26.66-8.79-2.19-17.18-5.52-25.16-9.98,1.5,6.2,3.97,12.42,7.81,17.4,1.23,2.26-.31,3.63-2.52,2.25-2.37-1.48-6.76-9.07-7.83-11.54-1.61-3.71-5.93-16.36-5.45-19.8.09-.63.29-1.2.71-1.68l-1.34-2.74c-.86-8.45-1.55-17.03-.84-25.49-30.82-8.1-54.83-32.57-71.23-58.59v-1.47c-.76-.36-1.35-1.51-.48-1.92-.38-.75-.28-.93.48-.48l1.98,1.05c22.95,30.11,55.62,61.97,96.51,58.43,8.74-.76,15.51-13.2,19.08-20.25,7.04-15.03,15.07-29.73,24.09-44.1,11.84-20.38,12.93-43.16,11.77-65.97l.58-1.14c-.67-.87-.83-1.35-.48-1.44-.27-.09-.24-.25,0-.48-.74-.28-.8-.93-.18-1.97l-8.08-6.06c1.82,4.74-1.03,12.03-6.62,11.87-.24.6-1.09.55-1.44,0-.72.36-1.52.36-2.4,0-4.03,1.22-7.88-2.84-8.41-6.86-2.53,1.7-3.57,3.13-.35,4.74l.12,1.16c.59,2.18-1.91,1.23-3.14.57-4.01,13.84-1.24,27.89,3.91,40.84,3.01,7.73-.33,12.03-7.04,15.58-2.26,1.19-9.5,4.36-6.12-.34l5.57-4.13c2.94-2.19,4.88-4.47,3.16-8.15-6.32-15.4-9.01-31.67-3.6-48.24,6-18.39,22.64-41.86,44.62-33.84,1.97-13.97,1.46-29.27-2.87-43.11-2.24-7.16-8.42-20.99-16.71-21.9-9.93.6-20.3-1.81-29.16-6.49-4.57,8.27-11.26,14.78-20.08,19.54-17.61,8.7-27.51,27.49-32.01,45.99,12.07-1.37,22.35,2.21,31.07,10.61,8.43,8.12.97,12.91-6.06,6.75-7.14-8.58-15.58-11.68-26.69-12.36-3.04,19.81-20.55,32.19-37.1,41.03-11.26,5.9-22.21,11.65-32.55,19.08-1.2.87-11.58,10-11.51,11.03,14.51,24.88,9.97,57.35,4.84,84.45l.39,3.84c6.98,24.68,2.55,52.98-16.85,71.26.76,10.83,2.13,21.66,5.43,32.04l-.06,2.91c-1.12-.13-2.23-.34-3.36-.48-.37-.38-.72-.77-1.02-1.19s-.56-.84-.69-1.29c-2.6-9.01-3.77-18.41-4.83-27.69l-4.19,3.26c1.7,7.13-.6,16.62-2.5,23.83l-1.16,1.17c-1.11-.17-2.26-.3-3.36-.48l-.54-1.9c.8-1.24,4.25-19.55,3.26-19.51-2.04.08-14.09,16.16-14.42,17.91l-1.73,1.1c-1.07-.2-2.17-.82-2.88-.96-.86-1.03-.53-2.4.99-4.09,2.85-3.33,4.33-5.82,5.28-10.1,1.49-6.69,4.66-28.08,2.14-33.89-1.42-3.28-7.09,7.61-7.5,8.57-5,11.72-7.07,23.88-8.4,36.48l-1.15,1.58c-1.06-.23-2.1-.78-2.88-.96l-.58-1.18c.23-7.47,1.32-14.88,3.26-22.24-.77-2.83-20.62-31.7-22.16-29.68-2.43,3.19,5.92,28.65,7.51,33.22,1.24,4.21,2.86,8.2,4.85,11.99,2.12,1.76,5.42,4.58,5.2,7.4-1.52-.36-3.1-.54-4.8-.96l-2.42-1.38c-1.23-1.61-10.64-9.81-10.04-4.66l-.97.75c.31,1.25.15,1.73-.48,1.44-.71-.21-1.59-.24-2.4-.48l-.94-.56.22-5.06c-3.32-2.71-29.61-23.47-31.44-22.76-1.26.49,15.27,19.97,17.03,20.94l.25,1.69c.6.43.44.59-.48.48-4.7-1.64-10.61-4.5-14.87-5.76l7.19,1.2c-1.85-1.81-3.64-3.76-5.26-5.77-3.09-3.84-10.1-11.63-8.55-16.69.22-.73,1.44-1.2,1.31-1.95-.09-.54-6.17-6.97-7.15-8.23-2.63-3.39-6.26-8.06-7.57-12.1-1.8-5.55-4.35-10.64-6.02-16.05-.51-1.66-.49-4.4-1.07-5.65-.23-.51-4.09-3.53-5.04-4.56-6.97-7.55-8.85-14.35-11.85-23.65-1.36-4.2-6.98-17.57-6.27-20.88,1.35-6.27,9.05,2.15,10.71,3.96,1.01,1.1,3.59,5.14,4.55,5.56.58.25,1.21-.83,1.9-1.03,2.08-.61,4.13,2.27,5.29,3.64.36.07.52-.09.48-.48-3.3-16.22-5.52-33.15-6.71-49.67C53.61,251.27,96.27,107.99,203.11,49.34c115.06-63.16,226.24,10.73,277.57,116.03,52.58,107.87,50.07,246.96-6.17,352.86Z"/>
  <path class="cls-184" d="M224.54,677.54c1.86.25,1.15,3.92-.48,4.08,1.59.46,1.47,6.45,0,7.2.35.16.6.41.71.78s-.31,7.37-.54,7.68l-1.13.42c-28.87-1.82-57.6-5.99-86.02-11.13l-.8-1.05c1.11-3.52,1.22-7.26,1.9-10.84.46-2.42,1.6-5.05,1.44-7.68,28.12,5.05,56.35,8.69,84.92,10.56Z"/>
  <path class="cls-80" d="M309.46,678.02c12.92-.84,26.17-2.33,39.03-3.91,15.36-1.88,30.62-4.75,45.85-7.09.51,3.2,1.39,6.38,1.95,9.56.28,1.59,1.76,8.92,1.24,9.63-28.44,5.69-57.58,9.66-86.64,11.48-.37.03-.95-.02-.98-.25-.5-3.66-1.81-15.77-1.37-18.79l.92-.63Z"/>
  <path class="cls-57" d="M309.46,678.02l1.44,19.67c-28.97,1.81-58.84,1.83-87.8,0,.86-2.4.33-4.97.46-7.45.03-.63.5-1.25.5-1.42v-7.2c0-.76.98-2.79.48-4.08,27.99,1.83,57.11,2.28,84.92.48Z"/>
  <path class="cls-206" d="M68.61,416.02c.06.29.78.69.47,1.44-.58.02-.7-.66-.95-.96l.48-.48Z"/>
  <path class="cls-93" d="M198.15,544.14c-3.87-11.3-5.71-23.31-6.22-35.26,15.55-15.52,21.03-33.86,19.65-55.67-.36-5.72-3.39-14.52-3.3-19.15.06-2.98,1.78-8.25,2.27-11.64,2.9-20.23,4.9-45.67-3.05-64.93-.81-1.97-3.66-6.19-4-7.56-.12-.48-.04-.65.15-1.07.26-.57,6.9-7.03,7.93-7.94,24.15-21.29,66.13-27.07,73.46-63.04,6.95.33,14.17.99,20.06,5.03,3.57,2.44,9.17,10.27,13.19,9.78,6.21-.75,1.17-6.09-1.13-8.41-7.91-7.97-20.24-11.82-31.2-9.33,3.25-15.84,12.18-34.09,25.47-43.86,2.65-1.95,5.67-3.24,8.37-5.07,7.84-5.31,15.66-10.38,19.19-19.69,7.05,4.7,15.58,6.53,23.96,7.22,4.85.4,6.51-1.26,10.82,2.13,13.64,10.76,17.05,37.09,16.33,53.29-.06,1.42-.89,10.8-1.2,11.28-.62.97-5.72-1.24-7.27-1.41-14.47-1.62-25.79,11.42-32.11,22.97-8.59,15.73-10.14,31.25-5.37,48.58.86,3.14,4.8,12.08,4.56,14.42-.46,4.5-8.25,7.77-10.93,10.9,5.45-1.56,14.43-5.42,13.87-12.17-.37-4.48-4.42-13.05-5.49-18.52-1.23-6.27-1.85-13.06-1.12-19.39.37-3.17,1.34-6.28,1.86-9.42.22-.22,3.05,2.35,3.83.96l1.3-.43c4.27,1.82,8.55,2.16,13.09,1.87.18-.41.4-.87.8-1.04,1.19-.51,7.79-2.32,9.13-2.54l1.1.69c1.55-.79,2.35-.63,2.4.48.99,18.51,1.63,32.35-4.08,50.38-5.44,17.17-16.04,30.65-24.31,46.22-5.68,10.68-13.62,34.58-27.49,35.85-41.16,3.76-75.64-30.23-98.14-60.48-.64-.01-1.18-.85-.96-1.44-.64,0-1.21-.93-.96-1.44-.67-.51-.83-.35-.48.48.68.15,1.13.76.96,1.44.54-.17,1.18.92.96,1.44.25.49.26,1.36.48,1.92.66,1.03.01,1.09-1.09,1.11,15.32,34.69,40.8,65.6,73.58,84.87l.93,2.31c1.3,8.88,3.66,19.08,8.62,26.64.67,1.03,4.26,5.81,5.06,5.98,2.56.56-.67-2.99-1.12-3.69-3.35-5.3-5.35-11.35-6.8-17.42,8.71,4.51,17.61,8.87,27.23,11.15,5.19,13.76,15.89,24.93,18.82,39.72-50.65,6.67-100.71,8.68-151.61,2.88Z"/>
  <path class="cls-54" d="M262.13,582.21c3.06-3.24,13.1-2.66,17.29-2.03,5.12.77,10.81,2.16,9.31,8.72-.74,3.23-4.64,2.64-6.59,3.96-1.36.92-2.76,8.16-3.23,10.21-2.82,12.34-3.97,25.6-7.38,37.72-1.74,6.18-5.05,16.99-13.56,11.72-6.06-3.75-16.28-30.22-20.06-38-1.61-3.32-2.39-5.85-3.93-.71-1.43,4.76-3.75,16.01-3.72,20.79.03,5.24,4.6,5.06,5.58,8.87,2.82,10.92-25.65,9.37-27.51,1.11-1.43-6.35,3.79-5.5,6.39-7.8,2.38-2.1,5.4-15.96,6.23-19.68,1.51-6.76,3.54-15.58,4.01-22.38s-.31-4.44-4.23-7.16c-4.97-3.44-1.73-8.72,3.07-10.32s15.33-1.76,19.69,1.46c7.52,5.56,13.44,25.98,18.86,34.4.88,1.37,1.56,2.32,2.36.26s2.74-16.75,2.55-19.06c-.28-3.37-2.71-2.99-4.59-4.56-2.22-1.85-2.57-5.37-.55-7.52Z"/>
  <path class="cls-54" d="M77.59,603.5c1.17-.95,5.48-10.83,6.45-12.97,3.25-7.17,8.65-18.67,10.44-26.02,1.44-5.91-.45-4.01-2.59-7.43-1.74-2.77-.64-7.95,2.88-8.59,5.21-.95,17.33,2.79,22.53,4.77,4.69,1.78,12.19,4.58,8.13,11.03-2.44,3.87-5.55,1.51-7.9,2.66s-10.67,23.48-12,27.34c-1,2.89-4.4,12-4.33,14.43.08,2.64,8.04,4.73,10.28,4.51,4.95-.48,9.55-9.44,14.33-8.53,7.31,1.39,1.75,14.01-.68,17.82-1.36,2.13-5.5,6.91-7.94,7.41-3.75.77-3.63-.71-6.03-1.9-11.11-5.49-23.93-6.34-35.36-10.22-4.78-1.62-8.76-4.66-5.85-10.17,1.89-3.59,5.81-2.63,7.64-4.12Z"/>
  <path class="cls-54" d="M163.02,585.06c3.68-.36,6.1.53,8.97,2.76,1.12.87,3.49,3.95,4.44,4.23,1.87.54,5.06-1.52,7.13-1.8,7.23-.97,8.37.81,6.68,7.16-2.15,8.05-8.21,21.06-8.84,28.61-.31,3.72,2.62,2.35,3.24,4.35,2.38,7.78-19.38,15.34-23.65,9.73-2.05-2.7.08-8.8-1.46-9.11-.52-.1-7.37,4.54-9.21,5.17-6.04,2.07-13.24,1.03-15.9-5.48-6.39-15.6,12.13-44.02,28.62-45.63Z"/>
  <path class="cls-54" d="M354.94,591.79c21.26-1.61,17.43,28.21-1.01,35.45-3.09,1.21-12.62,2.16-5.29,6.56,2.32,1.39,4.88.73,7.21-.32,3.96-1.78,10.01-10.42,13.21-3.79,2.59,5.38-1.96,9.83-5.85,13.06-11.16,9.26-32.43,12-38.04-4.67-6.58-19.52,8.9-44.72,29.78-46.3Z"/>
  <path class="cls-54" d="M456.65,566.83c19.4-2.13,17.54,25.59,3.14,34.81-1.6,1.03-8.11,3.49-8.58,4.41s.74,2.33,1.46,2.89c3.06,2.35,6.88.62,9.6-1.46,3.08-2.37,7.33-10.26,11.21-4.95,3.5,4.78.21,9.32-3.04,13.13-8.95,10.48-29.51,17.38-38.16,3.13-11.16-18.39,2.55-49.54,24.37-51.94Z"/>
  <path class="cls-54" d="M377.96,603.28c-1.39-1.47-4.81,1.56-5.91-2.01-2.17-7.08,7.23-12.52,12.75-14.65,8.14-3.15,11.1-2.73,12.41,6.29.95,6.6.8,13.46,1.5,20.09.4,3.8.56,11.58,6.24,10.1,8.06-2.1,7.91-16.23,5.64-22.47-1.63-4.48-8.43-11.13-7.47-15.36,1.02-4.5,9.69-6.12,13.1-3.23,5.18,4.4,6,21.63,5.53,28.09-1.12,15.54-11.73,32.61-29.41,29.86-11.72-1.82-12.62-14.28-13.3-23.64-.19-2.66.52-11.39-1.08-13.08Z"/>
  <path class="cls-54" d="M309.86,597.52c6.26-.36,6.1,4.97,5.84,9.71-.34,6.22-1.8,12.52-2.39,18.72-.24,2.55-.85,6.76-.49,9.11.33,2.15,2.4-.17,4.13,1.16,2.9,2.24-.5,8.11-2.43,10.14-4.86,5.12-21.6,11.91-22.81,1.18-1.02-9.05,2.31-19.73,2.87-28.79.44-7.14-2.01-3.46-4.34-5.72-1.04-1.01-1.1-2.88-.82-4.24,1.19-5.79,15.18-10.97,20.44-11.27Z"/>
  <path class="cls-160" d="M374.71,537.9c-7.29,1.2-14.75,2.37-22.07,3.36-2.13-13.79-11.91-24.19-17.36-36.14-.68-1.5-2.17-3.79-.15-4.17s9.49.65,11.86,1.09c8.65,1.59,9.3,3.29,13.81,10.18,5.33,8.14,9.53,17.01,13.9,25.68Z"/>
  <path class="cls-94" d="M147.29,535.02c-1.26-1.96-2.84-3.72-4.32-5.52-.48-.59-1.26-.69-1.82-1.54-2.69-4.14-7.72-21.06-9.35-26.64-1.21-4.17-4.85-16.11-2.75-19.72.36-.62.56-.29,1.19-.33,9.58,8.35,16.06,19.83,22.55,30.66-1.52,7.79-3.25,15.59-3.58,23.57-.65-.15-1.28-.33-1.92-.48Z"/>
  <path class="cls-94" d="M160.73,537.9c-2.75-.55-5.8-.81-8.64-1.44,1.58-13.9,3.93-31.84,11.6-43.82,2.86-4.47,6.49-7.21,7.13.38s-1.47,27.97-4,34.9c-1.14,3.15-5.25,6.49-6.1,9.98Z"/>
  <path class="cls-93" d="M377.59,537.42l-7.59-15.2-10.15-16.95,19.44,6.69c-.13,4.07-1.28,8.72-.75,12.76.3,2.34,2.6,3.07,3.51,1.06,1.21-2.66,1.13-8.4,2.76-11.4.85-.66,16.54,9.96,17.98,11.52,1.54,1.66,1.25,3.14,1.2,5.27-1.42-1.17-2.06-3.21-3.59-4.32-5-3.62-4.83,3.94-4.56,7.2-6.03,1.16-12.19,2.34-18.23,3.36Z"/>
  <path class="cls-54" d="M306.96,577.38c12.04-1.32,12.94,8.72,4.39,14.95-4.32,3.15-16.09,6.28-18.92.28-3.58-7.58,8.12-14.52,14.53-15.22Z"/>
  <path class="cls-94" d="M126.18,529.74c-4.72-1.42-9.27-3.19-13.91-4.8-.58-.28-.9-.6-.96-.96-5.6-6.14-13.42-13.59-17.35-20.79-.53-.97-1.7-2.63-1.12-3.68,12.09,6.69,22.67,15.67,33.61,24l-.26,6.23Z"/>
  <path class="cls-160" d="M194.79,543.66c-4.79-.58-9.62-1.19-14.39-1.92,1.12-7.74,4.09-15.29,3.34-23.25-.08-.8-.9-1.77-.88-1.95.03-.4,5.49-4.1,6.17-5.03,1.04,10.86,2.64,21.69,5.76,32.15Z"/>
  <path class="cls-131" d="M486.02,474.56c-5.69,14.67-11.66,28.87-19.19,42.71-2.91.36-5.36,1.23-8.16,1.92.45-1.04-1.09-.92-.96-1.2.66-1.36,4.54-4.75,5.74-6.25,4.47-5.57,7.57-12.8,10.32-19.43.49-1.18.44-2.7,1-3.79.65-1.25,4.29-4.1,5.67-5.84,1.49-1.88,4.22-5.98,5.09-8.11.14-.35.3-.34.48,0Z"/>
  <path class="cls-94" d="M177.04,541.26c-4.46-.72-8.99-1.55-13.43-2.4,2.33-4.2,5.13-8.5,8.17-12.22,1.09-1.34,7.05-8.2,8.37-7.93.59.12.73,1.02.7,1.61-.08,1.64-.33,4.09-.52,5.77-.58,5.12-2.17,10.17-3.3,15.18Z"/>
  <path class="cls-94" d="M416.94,529.27c-.24-3.03-.44-3.46.95-6.01,2.03-3.7,12.16-17.59,15.61-18.94,1.33-.52.62,3.64.5,4.34-1.05,6.12-4.5,12.19-6.02,18.21-3.68.86-7.35,1.59-11.04,2.4Z"/>
  <path class="cls-94" d="M442.84,523.03c-.03-1.39.04-3.17.61-4.43,1.28-2.87,18.49-15.81,21.81-16.58.52-.12,1.04-.15,1.57-.1,1.16,1.08-6.38,9.87-7.43,11.04-1.9,2.12-5.2,5.59-7.44,7.19-.1.42-.58.74-1.44.96l-.96.48c-2.22.55-4.7.94-6.72,1.44Z"/>
  <path class="cls-94" d="M415.02,529.74c-2.88.63-5.73,1.32-8.64,1.92-.57-6.73-1.21-14.05-.34-20.74.42-3.29,1.21-6.14,3.8-2.15,3.58,5.54,3.77,14.65,5.19,20.97Z"/>
  <path class="cls-149" d="M440.45,523.99c-2.39.58-4.95.9-7.2,1.44,1.06-6.86,4.59-13.9,8.4-19.67l.67,3.07-1.87,15.17Z"/>
  <path class="cls-118" d="M142.5,534.06c-4.33-1.08-8.66-2.13-12.95-3.36-.43-.35-.59-.99-.48-1.92.09-2.53-.46-4.04,2.89-3.14,3.93,1.06,7.97,5.4,10.54,8.41Z"/>
  <path class="cls-97" d="M402.06,532.62c-1.44.29-2.88.68-4.32.96-.25-7.53,1.21-5.88,4.32-.96Z"/>
  <path class="cls-99" d="M452.44,520.63c-.36.09-.85.33-1.44.48h-.48c.34-.54,1.02-.66,1.44-.96l.48.48Z"/>
  <path class="cls-27" d="M129.54,530.7c-.42-.12-.75-.42-.96-.48.63-.23.46-.91.48-1.44l.48,1.92Z"/>
  <path class="cls-13" d="M430.37,526.39c-.29-1.43,1.23-1.5.96,0-.28.07-.68-.07-.96,0Z"/>
  <path class="cls-31" d="M112.27,524.95c-.48-.16-.96-.31-1.44-.48l.48-.48c.25.27.84.42.96.96Z"/>
  <path class="cls-26" d="M450.52,521.11h.48c-.35.09-.84.33-1.44.48l.96-.48Z"/>
  <path class="cls-194" d="M510.01,304.22c-.14.42-.3.41-.48,0-1.02-.39-2.47-1.4-2.88-2.4-1.32-.5-2.6-1.3-3.84-2.4-9.68-5.6-18.3-8.91-28.31-1.44l-1.44.48c-1.45,1.73-3.39,2.95-5.76,2.4-4.86-1.09-7.56-2.32-11.99-4.32l-.96-.48-.96-.48-.96-.48-2.88-1.44-.96-.48-.96-.48-.96-.48-.96-.48-.96-.48-.96-.48-7.67-4.79c4.26.4,8.45,1.47,12.72,1.91,12.19,1.27,23.91,1.73,35.84-1.58.49-.14,1.45-.12,1.34-.81-5.3-1.29-10.73-.6-16.07-.97-12.19-.84-23.68-2.39-35.92.35l-21.89-14.5c-1.03-1.25-.33-7.84-.49-10.06-.86-11.67-3.02-25.6-9.68-35.42-1.41-2.07-3.68-3.87-4.81-5.75-2.76-4.59-5.03-12.52-7.64-17.79-18.54-37.44-50.6-64.46-92.84-70.3-12.58-1.74-25.36-.81-37.84-.54-17.03.36-31.83,3.22-47.06,11.03-17.19-2.26-34.56-2.47-51.75-2.37-11.8.06-23.05.07-34.8,1.42-.66.17-.66.33,0,.48,3.52.63,7.7,1.1,11.28,1.44,23.85,2.21,48.35,1.67,72.21.72-17,9.43-32.35,21.96-44.97,36.72-12-1.62-24.34-1.51-36.12,1.43-.11.69.85.67,1.34.81,9.47,2.61,21.1,1.69,30.78.84.64-.06,1.14-.7.98.5-21.46,25.16-38.15,59.53-35.86,93.46.04.54.97.95-.35.83l-43.82-40.17.39-3.5c15.42,3.04,32.11,2.73,47.49-.48.08-.74-1.28-.68-1.83-.8-13.97-2.99-31.28-2.07-45.18.8,2.95-13.12,7.29-25.98,12.3-38.42,12.89,2.2,26.33,2.31,39.03-.93-.41-.77-2.49-1.04-3.34-1.21-11.04-2.28-24.05-1.52-35.04.74l10.13-23.94c12,1.58,24.84,2.3,36.4-1.74-11.35-3-23.5-2.73-35.02-.72l6.23-12.27c4.55.7,9.09,1.69,13.68,2.19,13.01,1.42,26.64,1.39,39.58-.48.28-.47,1.24-.6,1.63-.37.07.04-1.38.12-1.15-.59-3.31-.91-7.87-1.46-11.33-1.86-13.9-1.61-28.07-1.38-41.92.42l16.15-25.83,30.63,2.31c8.5.06,17,.07,25.4-.01,10.66-.11,21.85.13,32.41-1.42.66-.18.66-.34,0-.48-5.37-.94-11.12-1.49-16.56-1.91-19.19-1.49-38.85-1.3-58.05-.49-4.24.18-8.48.33-12.71.48,1.76-3.89,5.25-6.81,7.19-10.55.1-.35.21-.73.48-1,.72-.72,14.76-.19,17.31-.03,15.65,2.09,31.32,2.8,46.99,2.14,13.44-1.83,26.99-2.95,40.66-1.96,27.58,2,55.27,2.41,83.06,1.23l1.98.58c1.74-.02,3.02-.34,3.84-.96l-3.63.35c-19.2-.85-38.41-1.61-57.63-2.28-13.46-2.77-27.26-2.92-40.92-2.05-30.15,3.58-61.19,3.85-90.67,2.7l-.02-.64c3.5-2.84,6.6-8.21,9.8-11.55,1.51-1.1,3.93.02,5.77.06,23.57.49,46.96-.37,70.55.46,43.29,1.52,86.53-1.09,129.79,1.43.88-.26.24-.58-1.92-.96-14.52-1.26-28.78-4.28-43.4-4.82-22.87-.84-46.15.91-69.13.52-16.09-.27-32.24-1.62-48.46-1-10.41.39-20.8,2.11-31.17,2.89-3.56.27-7.22.35-10.79.48,3.82-4.63,8.04-9.28,12.72-12.95,5.51,1.14,11.15,1.87,16.8,1.46,4.14-.3,8.28-1.66,12.46-1.93,6.56-.42,13.62.49,20.14-.01,4.97-.38,9.84-2.08,14.88-2.39,6.93-.42,15.31-.2,22.31,0l10.07.47-7.9-.44-.26-.52c-9.53-.04-19.57-1.56-29.05-.98-3.4.21-7.16,1.4-10.51,1.48-7.12.18-14.88-1.38-22.11-1-2.34.12-4.93.86-7.18.98-5.07.26-10.15.05-15.11-.96-.22-.83.34-.96.71-1.44.83-1.08,8.25-7.54,9.14-7.68l15.33,1.97c9.44-.93,18.91-1.28,28.07-3.89.11-.68-.85-.7-1.33-.81-4.68-1.15-14.54-1.31-19.56-1.12-6.59.25-13.33,1.3-19.89,1.94,4.83-4.72,10.8-8.42,16.57-11.97,30.09,2.04,60.51,2.87,90.65.93,4.7-.3,9.48-.93,14.16-1.44l-5.52-.95c-27.61-1.79-55.37-2.39-83.02-.98-4.69.24-9.41,1.12-14.13.97l9.75-5.84c9.46-6.52,17.55-6.13,28.37-6.14,7.23,0,16.41-.77,23.31.68,2.24.47,4.66,1.65,7.06,2.06,9.22,1.56,17.41-2.12,26.73-2.78,6.21-.44,15.06-.92,21.15-.48,3.7.27,7.53,1.99,11.26,1.22l-12.36-3.95c-8.72-.5-18.53-1.86-27.21-1.08-3.78.34-7.66,2.12-11.51,2.41-7.09.53-12.71-2.4-19.69-2.63s-20.39.69-27.11,2.13c-.53.07-.69.07-.48-.48,83.93-33.14,163.91,4.38,215.61,72.03,40.79,53.36,61.01,119.62,66.98,186.13Z"/>
  <path class="cls-63" d="M285.95,132.92c23.46,1.04,46.8,9.86,65.2,24.28s33.11,36.04,40.83,57.29c-.14.26-.3.26-.48,0-14.12-8.95-33.03-.32-48.79-9.98-1.27-.78-4.78-4.19-5.28-4.33-3-.86-1.84,3.06-2.1,4.92-1.54,10.95-23.45,20.01-31.15,27.39-14.8,14.18-17.78,29.17-23.27,47.75-9.88,33.44-55.8,39.33-78.21,64.29-7.42,8.27-8.54,14.24-13.46,23-1.45,2.58-4.71,5.34-6.52,8.35-10.17,16.93-4.82,39.28-6.14,58.16-.64,6.8-1.07,13.6-1.94,20.37-.14.42-.3.41-.48,0-.12-4.54.23-9.16.02-13.7-.78-17.15-5.82-33.57-4.84-50.86,1.04-18.27,9.22-39.48,20.66-53.71,8.13-10.1,18.88-17.55,27.58-27.12,11.5-12.65,21-27.92,27.99-43.5,11.03-24.57,13.81-56.2,32.69-76.47,1.65-2.59,5.27-5.59,8.16-6.72.52-.99,2.24-1.95,3.36-1.92.62-.9,2.27-1.54,3.36-1.44.37-.71,1.61-1.08,2.4-.96.45-.27.47-.43,0-.48-.75.59-1.95,1.12-2.88.96-.66.79-2.34,1.47-3.36,1.44-.73.94-2.18,1.79-3.36,1.92-2.52,2.24-5.46,4.72-8.16,6.72-22.29,22.28-25.41,58.61-40.53,86.38-11.78,21.64-22.88,31.67-40.08,48.21-14.53,13.97-24.63,31.59-28.63,51.5-7.08,35.21,10.88,66.39,2.25,101.82-.26,0-.48-.03-.51-.12-.39-1.03-.31-3.36-.26-4.53.03-.85.15-1.7.29-2.54-.05-4.85-.03-16.04-1.67-20.16-.89-2.25-3.03-1.96-5.05-1.91-.65-6.96-2.24-13.83-4.19-20.52-.42-1.43-1.96-4.23-2.03-5.17-.16-2.27,1.88-9.53,2.3-12.53.95-6.77,2.02-14.22,1.54-21.05-.23-3.24-.34-6.71-3.86-7.76-1.56-7.34-1.99-16.7-5.18-23.5-.67-1.44-2.38-3.16-2.72-4.01-1.03-2.55,4.17-19.27,5.5-22.78,9.77-25.74,30.59-43.74,43.67-66.45l.96-.96v-.48c.04-.94.78-2.16,1.44-2.88-.04-.66.35-1.62.96-1.92-.31-.48-.05-1.23.48-1.44-.09-.64-.25-.8-.48-.48.31.54.11,1.19-.48,1.44.2.82-.28,1.94-.96,2.4-.16,1.41-.96,2.53-2.4,3.36-17.22,24.45-39.63,42.08-48.59,72.57-2.28,7.78-2.67,13.98-5.89,21.46-2.18,5.06-3.79,10.38-4.54,15.86-4.9-1.64-6.61,1.96-7.2,6.23l-4.45-18.33c-10.75-26-4.07-53.76,14.28-74.28,18.72-20.92,55.45-29.77,69.82-54.22.4-2.04,1.83-4.46,2.88-6.24-.13-1.05.38-2.5.96-3.36-.17-1.17.08-2.75.48-3.84-.16-.22-.32-.22-.48,0,.39.9.19,2.65-.48,3.36.27,1-.14,2.81-.96,3.36-.19,2-1.22,4.66-2.88,5.76-13.59,20.6-46.6,30.44-65.26,46.3-18.98,16.13-31.09,44.33-25.49,69.17,2.79,12.36,9.41,26.43,10.98,38.92.5,3.99.85,19.68.12,23.15-.3.47-.62.15-.96-.96-7.31-44.21-32.17-87.21-2.4-128.36,13.08-18.08,34.44-25.85,50.63-40.53,5.1-4.63,11.18-10.88,15.29-16.38,4.79-6.41,8.12-13.74,12.85-20.25,6.06-8.33,14.63-16.79,22.94-22.88.03-.34.09-.63.28-.77,3.8-2.93,8.77-5.7,13.16-7.38,1.7-1.46,4.02-2.54,6.24-2.88.94-.92,2.53-1.5,3.84-1.44.46-.71,2.03-1.26,2.88-.96,1.6-.81,1.44-.97-.48-.48-.75.64-1.91,1.14-2.88.96-.95.85-2.57,1.46-3.84,1.44-1.74,1.23-4.16,2.42-6.24,2.88-4.4,2.59-8.76,5.31-13.09,8.16h-.82c-17.55,12.33-22.14,21.05-33.68,38.06-5.32,7.84-12.5,15.03-19.82,20.96-.33.1-.33-.39-.23-.71.64-2.04,3.49-6.57,4.71-8.73,16.01-28.38,41.3-60.25,71.73-73.66,8.24-3.63,16.52-5.62,25.27-7.59.64-.18.64-.34,0-.48-14.34-.65-29.11,5.98-41.03,13.43-23.42,14.63-42.6,38.42-56.45,62.07-3.21,5.48-8.13,17.72-11.42,21.68-2.83,3.4-10.3,6.16-13.68,9.35-.57-.17-.15-1.04,0-1.45,1.59-4.44,4.54-10.11,6.71-14.4,21.62-42.54,55.22-84.9,103.41-97.4.19-1.25-.22-.98-1.21-.97-8.89.08-25.72,8.36-33.48,13.06-34.4,20.83-58.48,56.23-75.59,91.87-1.4,2.91-3.93,10.69-5.62,12.61-1.96,2.24-9.13,6.17-12.21,8.9s-5.66,6.04-8.62,8.88c-.2-16.43,3.6-32.34,9.99-47.35,14.18-33.33,46.03-68.31,79.08-83.58,48.67-22.49,93.78-1.13,115.73,45.35.74,1.56,1.96,5.94,2.73,6.87,2.04,2.48,1.65-1.05,1.2-2.64-8.18-28.87-33.6-50.68-61.43-59.24-.17-.28-.3-.49-.28-.51.57-.42,6.67-.29,7.59-.27,1.25.03,2.49.1,3.73.3Z"/>
  <path class="cls-131" d="M508.51,379.49c-15.61-1.63-31.75-1.41-46.84,3.3-4.63,1.44-8.53,3.65-12.94,5.29-11.01,4.1-22.86,5.78-34.61,5.33-3.89-18.82-9.13-37.57-9.11-56.97,18.77-5.63,38.9-11.2,55.91-21.1,7.4-4.31,10.19-8.3,16.24-13.03,9.16-7.16,18.66-2.04,26.36,4.32,2.28,1.88,5.15,4.73,6.96,6.96.96,21.95.89,44.12-1.97,65.9Z"/>
  <path class="cls-152" d="M382.87,439.05c.13,1.61.26,3.33-.48,4.8,0,2.28-.15,4.52-.48,6.72.16.33.32.33.48,0-.3-1.73-.49-3.83.48-5.28-.17-1.44-.34-3.11.48-4.32,1.18-7.65,4.76-21.48,9.87-27.31.48-.54.73-1.18,1.63-1,.2,2.13,3.82,6.63,3.65,8.4-.04.46-4.27,6.06-4.99,7.29-8.29,14.26-10.11,30.64-9.23,46.95.21,3.79,2.21,11.38,1.93,14.33-.14,1.53-3.64,8.39-4.44,10.95s-1.46,5.39-1.8,8.05l-10.11-3.68c-2-7.92-3.29-16.04-4.28-24.15-.99-2.22-.73-5.21-.48-7.68-.41-1.02-.38-2.37,0-3.36h-.48c.37,1.06.36,2.29,0,3.36.39,3.79.55,7.63.48,11.52-.04,6.52,1.52,13.24,2.4,19.67l-20.56-5.34c1.1-14.13,5.89-28.11,13.17-40.2,9.46-15.72,17.06-23.95,20.35-43.23l.48-1.92c.06-.46-.05-.97,0-1.44-.11-1.24-.26-2.93.48-3.84.59-1.9.43-3.02-.48-3.36.34,1.86.4,4.13-.48,5.76-.04.31.05.66,0,.96l-.48,1.44c-3.83,19.19-12.3,28.27-22.27,43.71-7.92,12.26-12.85,27.13-13.71,41.71-2.64.47-5.45-.53-7.92-.53-3.87,0-5.07.73-9.36-.44-.53-.93-.26-3.51.48-4.32-.31-1.2-.37-2.99.48-3.84.74-8.24,5.81-15.78,10.45-22.52,17.54-22.6,33.98-47.84,32.25-77.77-.5-.86-1.01-1.98-.48-2.88.15-1.74,4-9.09,4.93-11.63,5.46-14.86,7.22-29.41,6.61-45.26-.1-2.62-1.85-15.22-.97-16.53,1.82.88,3.9.56,5.75,0l-4.31-.96c.78-.85,1.61-1.54,2.4-2.39.44-.65.44-.81,0-.48-.46.19-2.75,1.1-2.88.96.51-5.76,4.55-10.67,6.37-15.94,5.34-15.46,5.3-39.64,1.46-55.47-2.31-9.54-6.45-18.2-13.59-25.03,16.85.57,26.76,14.45,29.99,29.74,4.27,20.21-3.07,37.48-7.59,56.71-3.89,16.54-7.81,34.22-9.86,51.08-2.3,18.96-3.59,40.83,4.57,58.48-6.45,8.6-8.6,19.06-9.91,29.51Z"/>
  <path class="cls-63" d="M171.77,519.67c.55-11.12,5.38-23.99-.44-34.28,4.81-17.43,7.51-35.64,8.13-53.75.48-13.87-1.84-29.58,1.18-42.97,1.23-5.45,3.78-11.57,7.92-15.35-.63,19.55,9.2,37.42,14.53,55.77,10.71,36.93,6.01,64.98-26.37,87.61-.59.41-4.65,3.31-4.95,2.97Z"/>
  <path class="cls-131" d="M436.61,507.19c.28-2.47.32-4.87-2.41-5.55,1.96-6.17,4.4-12.29,5.84-18.62.77-3.4,3.91-14.79-1.98-13.74.84-6.89-1.13-14.21-.99-20.9.08-4.07,3.56-21.88.03-23.98-.86-.51-2.73-.07-2.89-.23-.18-.17.34-3.49-.48-4.32,5.95,1.3,11.7,3.34,17.66,4.64,9.66,2.12,21.67,3.92,31.54,3.53,5.99-.24,11.97-1.78,17.97-1.94l-.82,2.88c-19.51,4.51-39.23,1.7-58.68-1.44,1.46,1.69,4.89,2.19,7.11,2.72,12.05,2.91,27.84,4.5,40.15,3.5,1.53-.12,10.37-1.81,10.8-1.43-1.63,6.96-3.68,13.8-5.76,20.63-.38.91-.7,1.07-.96.48-3.14-4.81-8.18,5.12-10.08,6.04-1.2.58-.96-1.84-4.08.67-3.47,2.8-4.69,7.38-7.21,10.06-.91.97-3.45,2.14-4.79,3.37-4.97,4.58-11.42,11.39-15.5,16.65-2.26,2.92-6.1,10.79-8.01,12.62-2.5,2.4-3.4,1.15-5.99,5.77-.46.21-.62-.27-.48-1.44Z"/>
  <path class="cls-131" d="M508.04,384.89c-.74,7.07-1.74,14.14-2.97,21.14-.61,3.48-1.54,11.24-2.73,14.07-.19.46-.15.99-.78,1.14l-19.13,1.54c-12.27-.49-24.01-1.83-35.94-4.88-2.42-.62-11.95-3.09-13.38-4.25-.75-.61-.8-2.13-1.37-3.08-2.56-4.27-4.33.68-5.35.59-.47-.04-8.01-3.41-8.67-3.84-1.61-1.05-2.44-5.91-2.67-7.89-.12-.96-.02-.59.68-.69,3.45-.45,7.97-.12,11.52-.48,12.75-1.31,19.52-4.58,30.96-8.86,15.78-5.91,33.22-6.81,49.83-4.51Z"/>
  <path class="cls-131" d="M95.96,358.92c3.47-.6,7.06-.97,10.55-1.44-1.83,8.27-4.53,16.96-9.4,23.95-1.56,2.24-3.81,4.36-5.39,6.6-6.38,9.04-11.85,19.61-14.48,30.39l-.72-.47c-5.96-29.23-8.65-59.11-8.32-88.95l41.91-5.11c1.13,1.76-1.96,2.35-3.34,2.89-8.39,3.3-17.3,5.54-26.16,7.19.74.93,2.18,1.09,4.32.48,2.54-.06,4.85-.25,7.37-.55,5.38-.63,12.72-3.13,17.58-3.29.71.16.71.8,0,1.92-3.66,3.51-18.71,7.23-23.99,8.16-.16.6.48.76,1.92.48,4.06-.39,7.49-.74,11.52-1.67,3.27-.75,7.46-2.69,10.31-3.13,1.32-.2-.23,2.39.19,3.31-8.5,2.97-17.05,5.38-25.86,7.24.33.59,1.13.75,2.4.48,7.33.14,15.35-1.62,22.55-2.88.88,2.94-3.64,4.39-5.91,5.36-4.43,1.9-9.44,3.3-14.24,3.76-.02.27-.04.48-.06.48-3.8.13-5.11-1.17-.2-.02.12.03.2.24.26.5,1.82.02,5.04-.31,6.9-.54,4.21-.52,8.19-1.9,12.29-2.82.12.12-.45,3.14-.56,3.27-.42.47-10.3,3.4-11.91,3.93-.42.73-1.58.64-2.4.48-.03.37.29.53.96.48.42-.56,1.31-.8,1.92-.48Z"/>
  <path class="cls-131" d="M101.24,270.15c-6.41-6.86-15.61-15.63-21.1-22.81-1-1.31-1.76-2.27-1.45-4.06l43.21,38.66c-6.7,11.55-11.77,23.5-11.54,37.16l-41.74,4.31.96-20.15,9.44,6.65c.43.41,1.19.35,1.59.55,2.03.96,2.19.8.48-.48-2.13-1.6-9.71-9.91-10.67-12.12-.88-2.03.58-4.34.12-6.59.33-.38,1.93.95,2.35,1.25,6.89,4.89,12.98,10.3,20.2,15.07.67-.17,1.82.76,1.92,1.44l.48-.48c-.81.08-1.76-.65-1.92-1.44-7.78-6.49-14.5-14.14-21.61-21.33-1.18-2.03.55-4.64.03-6.98.83-.22.96.34,1.44.71,8.65,6.67,17.21,15.62,25.91,22.8,1.4.52,3.07,2.07,3.84,3.36.48.13.65-.03.48-.48-1.47-.46-3.15-1.98-3.84-3.36-5.54-5.44-11.39-11.91-16.56-17.75-1.88-2.12-8.49-8.95-9.36-10.79-.93-1.96-.27-3.09.02-5.05l1.44.72c9.12,8.74,18.96,16.71,28.3,25.19.94.54,1.81,1.46,2.4,2.4.49.31.65.31.48,0-.94-.55-1.87-1.45-2.4-2.4-9.7-10.69-19.25-21.54-29.2-32.01-.05-.6.2-2.46,1.12-2.06,8.32,7.47,17.14,14.38,25.68,21.59,1.04.49,1.68,1.13,1.92,1.92.45-.1.93.22,1.44.96.31,0,.47.17.48.48.57.37.57.21,0-.48h-.48c-.66-.45-.98-.92-.96-1.44-.65.23-1.55-.78-1.92-1.44-.59-.62-.99-1.69-1.67-2.41-7.73-8.1-15.45-16.21-23.3-24.2-.81-.66-.61-4.14.27-4.1,7.66,6.39,14.98,13.19,22.55,19.68.41.35,1.06.35,1.2.46.81.11,1.91,1.11,1.92,1.92.6.11,1.24.59,1.92,1.44l.48.48q.19.15,0,0l-.48-.48c-.84-.57-1.32-1.21-1.44-1.92-1.03-.35-1.83-1.15-2.4-2.4Z"/>
  <path class="cls-63" d="M408.3,278.79c.32,15.71-4.46,33.34-5.75,49.19-2.97,36.3,14.42,69.58,12.49,106.06-.51,9.68-2.59,19.6-6.26,28.53-.95-.31-.76-1.93-.48-2.88.06-11.62-.39-21.29-3.71-32.52-3.82-12.93-11.44-21.64-13.48-35.46-5.13-34.74,8.12-81.35,16.71-115.32.6.18.76.98.48,2.4Z"/>
  <path class="cls-131" d="M439.01,297.5c-6.53-2.82-13.88-7.53-19.42-12.01-1.81-1.47-6.91-5.72-7.98-7.42-.49-.78.09-.88.05-1.68,16.82,11.25,34.02,23.66,53.73,29.27.7.75-4.44,3.79-5.13,4.22-16.28,10.16-36.53,15.19-54.61,21.2-.58-6.41,1.47-12.8,1.91-19.2.48-.59.58-.52,1.22-.23,1.64.74,5.38,3.41,7.2,4.57.67-.18,1.84.75,1.92,1.44.41.06.57-.1.48-.48-.76.1-1.79-.69-1.92-1.44-1.58-1.3-7.87-6.05-8.14-7.45-.18-.93-.33-3.66,1.1-3.52.5.05,7.73,4.07,8.96,4.73,1.6.06,3.26,1.19,4.32,2.4,1.23.24,2.35.88,3.36,1.92h.48c-1.42-.57-2.54-1.37-3.36-2.4-1.45-.29-3.11-1.12-3.84-2.4-1.73-1.13-9.43-5.86-10.12-6.94-.54-.83.35-2.56.05-3.62,6,3.15,12.24,5.95,18.23,9.12,1.21-.07,2.66.92,3.36,1.92.84-.02,1-.18.48-.48-1.55-.35-2.87-1.12-3.84-2.4-.11-.07-.37.07-.48,0-.35-.49-.86-.8-1.44-.96-5.12-3.25-10.03-6.9-15.36-9.83-1.1-1.12.19-2.67,0-4.08,8.08,3.57,15.69,7.93,23.99,11.04,1.25-.13,2.97.66,3.84,1.44.33-.02.5-.17.48-.48-1.1.14-2.86-.46-3.36-1.44-6.48-3.32-14.95-9.07-20.78-13.52-.67-.51-4.76-3.15-3.68-4.23.49-.49,1.52.46,1.94.7,9.66,5.57,14.82,9.24,25.89,12.73,1.03.06,2.48.45,3.36.96.36-.31,1.12.03,1.44.48.8.22.8.06,0-.48-.44.28-1.09-.05-1.44-.48-.91.23-2.54-.04-2.88-.96Z"/>
  <path class="cls-63" d="M121.87,433.3c.13,2.79-.55,5.2-.5,7.94.06,3.21,1.24,6.93,1.45,10.06.38,5.56-.2,11.64-1.09,17.13-.29,1.77-1.75,9.47-2.5,10.47-.6.79-2.37.07-2.86-.51-.86-1.01-2.63-6.02-3.71-7.81-1.81-3.01-5.72-6.63-7.04-9.28-1.5-3.02.87-15.48,1.52-19.46,3.94-23.9,12.08-47.34,11.37-71.88l2.26,7.09c3.28,12.98,6.54,25.98,8.77,39.21-.91,2.15-1.64,15.85-2.44,16.51-.29.24-1.87-.07-2.58.05-1.54.26-1.36,2.08-2.17-.49-.52-.1-.53.45-.48.96Z"/>
  <path class="cls-114" d="M224.54,390.59c2.79,3.04,4.82,7.32,7.29,10.71,16.22,22.26,37.59,41.23,64.62,48.86-.07,9.63.11,19.19,1.51,28.72-.54-.5-.86-1.2-1.46-1.66-3.58-2.74-8.7-5.26-12.61-8.03-24.44-17.32-45.48-43.73-58.32-70.76-1.44-3.03-3.9-7.96-4.86-10.98-.08-.24-.13-.78.23-.71,1.22,1.01,1.92,2.77,2.93,3.87.46.5.65-.06.67-.03Z"/>
  <path class="cls-152" d="M327.22,488c.29,1.3.13,2.26-.48,2.88l-.27,1.19c.57,2.25.34,3.93-.69,5.04-2.89-.87-5.41-2.19-8.16-3.36-2.22-1.15-2.85-1.95-1.92-2.4-1.64-4.98,2.06-10.61,4.94-14.72l8.65-11.09c4.12-6.31,5.56-12.46,6.55-19.77,7.98-8.05,12.31-21.2,17.5-31.2,4.67-8.98,10.74-17.25,15.12-26.38,1.19-.49,1.51,1.58,1.67,2.72,2.7,18.85-9.66,41.74-19.66,57.16l-11.24,16.31c-4.97,7.38-9.11,15.33-12.03,23.62Z"/>
  <path class="cls-63" d="M116.11,359.4c1.32,6.32.23,16.15-.54,22.73-2.93,25.19-12.21,49.6-12.42,75.16-1.5-1.31-2.62-2.93-4.07-4.33-2.56-2.46-1.83-1.85-3.88-4.75-1.12-1.58-5.28-5.82-5.72-6.77-.3-.66.13-5.36.24-6.46,1.6-15.54,7.72-21.62,13.84-34.62,5.88-12.48,9.61-25.87,11.58-39.52.12-1.01.44-1.49.96-1.44Z"/>
  <path class="cls-153" d="M331.53,116.6c-.73.61-2.01.93-3.84.96-16.91.49-35.26,1.38-52.08.98-18.01-.43-35.34-2.87-53.74-1.96-8.12.4-16.3,2.07-24.45,2.41-19.05.82-37.38-2.66-56.11-3.37-1.54-.06-2.92-.17-4.1.98.11-.21-.13-.94.23-1.45s1.08-.36,1.21-.47c2.35,1.32,5.5.06,7.9-.02,11.66-.41,23.33.78,35.06.52,29.61-.66,58.87-7.63,88.75-1.46,20.43.37,40.79,1.65,61.17,2.88Z"/>
  <path class="cls-63" d="M206.31,425.62c-.14.42-.3.41-.48,0-.96-4.55-4.5-10.4-5.16-14.75-1.04-6.79-.71-13.58-2.03-20.76-.63-.77-.73-1.93-.48-2.88-.21-.32-.38-.34-.48,0,.63,1.24.71,2.9.48,4.32.13,2.21.17,5.25,0,7.43-.05.58-.18,2.57-.95,2.64-2.49-9.19-5.98-18.84-5.28-28.54.39-5.42,2.75-9.31,4.8-14.16l3.96,9.23,3.23,13.8c.85,1.09.8,3.39.48,4.8.38.23.24.58,0,.96.81.27.75,1.6,0,1.92.42.75.74.91.96.48l-.47-.61c.34-2.21.34-4.4-.01-6.58l-.46-.2c.19-1.39.19-2.77-.02-4.12-.05-7.93-2.76-15.84-5.24-23.29l1.64-2.62c.79,0,3.68,6.77,4.09,7.9,4.87,13.24,5.36,30.16,4.3,44.15-.48,6.32-1.37,14.79-2.87,20.88Z"/>
  <path class="cls-94" d="M166,450.57c.13,2.42.84,5.04.98,7.42.37,6.23.75,19.49-.15,25.32-.48,3.14-2.33,3.19-4.18,5.42-3.9,4.72-5.97,11.71-8.04,17.4-.13.36.05,1.5-.84,1.06-.65-.33-7.66-11.62-7.82-12.33-2.1-9.27,9.81-34.47,16.23-41.63.53-.59,2.99-3.46,3.82-2.66Z"/>
  <path class="cls-131" d="M400.14,424.66c.36.35,2.38,8.36,2.65,9.59,1.27,5.82,2.55,14.53,2.17,20.42-.7,11-10.71,21.7-16.09,30.92-.65.05-1.04-3.86-1.14-4.61-2.33-16.61-.09-42.49,11.32-55.71.21-.24.35-1.33,1.09-.61Z"/>
  <path class="cls-63" d="M112.75,345.97c.73,16.19-4.46,35.46-10.95,50.23-3.42,7.78-8.7,14.69-11.61,22.46-2.3,6.16-3.75,12.86-3.83,19.44-7.12-5.82-8.75-8.2-6.58-17.38,5.46-23.07,22.23-34.84,28.51-56.41,1.76-6.03,2.75-12.19,3.97-18.34.14-.42.3-.41.48,0Z"/>
  <path class="cls-94" d="M142.97,490.4c-2.27-2.13-3.96-4.85-5.99-7.2-.79-.92-3.86-3.32-4.08-3.72-1.58-2.98-4.04-14.49-4.96-18.43-1.61-6.97-3.87-16.11-3.21-23.19.2-2.14.51-2.79,2.58-1.61,4.58,2.61,11.94,17.91,14.3,23.12,1.12,2.47,5.9,12.99,5.59,14.84-.24,1.44-1.7,4.19-2.18,6.02-.87,3.35-1.75,6.71-2.06,10.18Z"/>
  <path class="cls-131" d="M418.37,436.18c0,4.55-.13,9.15-.02,13.7.06,2.49,1.07,6.69.84,9.04-.1,1.03-3.19,7.95-3.82,10.01-.42,1.37-1.52,7.74-1.82,8.01-.2.18-1.67-.22-2.65.47-1.89,1.32-2.82,12-3.07,14.68-.31,3.26.07,8.65-.48,11.52-.17.9-1.62,1.58-2.35,2.93-.55,1.04-1.5,4.68-1.5,5.7v10.32c-1.61-1.17-5.48-3.26-6.45-4.83-1.08-1.77-2.61-6.97-3.28-9.2-.41-1.38-1.9-5.8-1.79-6.84.05-.48,5-6,5.96-7.49,4.37-6.78,4.96-12.68,7.86-19.49.95-2.23,2.79-4.38,3.87-6.69,3.68-7.94,5.54-16.1,7.27-24.64.04-1.3.31-2.78.96-3.84-.32-.87-.51-3.23.48-3.36Z"/>
  <path class="cls-152" d="M333.93,447.21c2.38-1.57,1.26,3.12.86,4.8-2.74,7.88-7.08,15.09-13.02,21.63-3.25,4.76-7.78,12.87-6.07,17.71.06.07-.06.56.16.78.58.55,1.48.73,1.75,1.62-3.2-1.36-11.88-4.63-14.1-6.78-2.64-2.57.21-6.55,1.72-9.21,4.64-8.18,12.02-15.14,13.87-24.76,4.79-.08,9.49-1.29,13.35-4.17.74-.55,1.05-1.27,1.48-1.64Z"/>
  <path class="cls-94" d="M149.69,446.73c-.76,5.76-1.65,11.51-2.4,17.27l-4.61-9.58c1.09-7.52,4.35-26.45,9.47-31.86,2.01-2.12,2.92,1.21,3.54,3.05,2.48,7.42,3.85,16.18,5.4,23.87-4.07,5.66-8.31,11.33-10.92,17.87l-.5-4.58c.68-3.88.53-7.81.5-11.73.09-2.38.25-4.62.48-6.72.25-1.56.09-2.36-.48-2.4.22,1.52.48,3.68-.48,4.8Z"/>
  <path class="cls-93" d="M351.2,305.66c2.47-5.1,9.78-17.14,15.01-19.29,6.05-2.49,14.84.14,20.94,1.57-.12,6.57-4.63,11.8-6.92,17.71-3.84-5.06-9.07-8.12-15.59-7.67-.36.15-.35.31,0,.48,5.97,1.57,10.66,3.38,14.39,8.63-3.7,1.57-6.01-2.52-9.1-4.09-6.57-3.34-12.99-1.54-18.25,3.14-.67.64-.92.37-.48-.48Z"/>
  <path class="cls-94" d="M137.7,427.54c-.11,5.59.09,11.21,0,16.79l-6.94-9.12c-.36-7.24,1.16-15.04,2.78-22.16.37-1.64,1.98-10.12,3.46-10.47,1.19-.28,4.46,5.29,5.11,6.4.99,1.7,6.45,12.44,6.45,13.52,0,.76-2,3.87-2.45,5.04-2.2,5.77-4.12,12.11-5.05,18.23-.93-.2-.84-.96-.96-1.68-.85-5.24-1.33-11.22-1.92-16.56-.16-1.67-.32-1.67-.48,0Z"/>
  <path class="cls-94" d="M114.18,510.07c-5.89-4.93-13.59-8.52-18.95-13.91-3.9-3.92-11.87-13.17-14.24-17.91-.31-.62-2.03-4.94-1.83-5.12,3.46.43,6.7,2.71,9.54,4.61,8.59,5.74,15.75,13.42,23.57,20.09,1.78,2.08.83,9.3,1.91,12.24Z"/>
  <path class="cls-94" d="M112.75,493.76c-.84.21-.96-.35-1.44-.72-3.84-2.94-7.63-7.88-11.71-10.84-1.05-4.34-2.01-8.79-2.61-13.23-.54-4.01-1.57-9.4-.31-13.12,2.21,2.14,4.38,4.25,6.2,6.76,2.09,2.87,9.72,15.46,10.47,18.33.4,1.53-.59,2.29-.59,2.98v9.84Z"/>
  <path class="cls-94" d="M415.98,521.59c-.63-3.41-1.26-6.95-2.52-10.2-.72-1.85-4.11-6.68-4.21-7.34-.31-1.92.7-11.24.97-13.89.13-1.23,1.34-10.81,2.16-10.79,2.83,3.98,4.94,8.57,6.49,13.18s4.58,16.48,3.09,20.86c-.71,2.1-4.57,6.14-5.97,8.18Z"/>
  <path class="cls-94" d="M93.55,466.41c-3.23-3.09-11.03-7.96-13.15-11.55-1.27-2.15-2.85-9.64-3.4-12.43s-.99-5.74-1.19-8.64c1.77.96,3.5,2.05,5.04,3.35,2.5,2.12,13.05,12.91,13.12,15.59.03,1.08-.81,2.82-.92,4.32-.22,3.16.3,6.25.49,9.37Z"/>
  <path class="cls-94" d="M431.19,503.22c-.53.67-2.77,2.26-3.71,3.24-1.14,1.18-3.01,5.02-3.37,1.48-.19-1.85-1.49-10.13-1.33-10.94.76-3.93,9.74-19.7,12.62-22.92,2.05-2.28,4.39-4.98,4.08.23-.21,3.63-6.46,26.6-8.29,28.91Z"/>
  <path class="cls-152" d="M318.1,452.97c1,.86-13.45,19.3-14,21.75l-2.31,5.6-2.41-29.27,18.71,1.92Z"/>
  <path class="cls-94" d="M117.93,482.82c.67.37,3.63,6.84,4.16,8.07,1.55,3.62,5.37,13.27,5.81,16.76.3,2.38-2.88,8.35-1.72,11.53-2.96-2.05-6.39-4.27-8.63-6.96-.9-8.12-2.42-16.8-1.94-24.97.04-.67.34-4.38.5-4.54.06-.06,1.48-.08,1.82.11Z"/>
  <path class="cls-94" d="M152.09,402.59c-.37,1.77-2.29,12.59-3.12,12.95-.58-2.4-3.81-6.17-4.36-8.14-.58-2.09,6.69-18.36,8.52-20.8,1.17-1.56,3.48-4.43,4.5-1.31.52,11.21-1.76,22.45-2.66,33.61-1.24-.43-2.11-.44-3.35,0,.48-4.94.56-9.93.96-14.87.15-2.2,0-2.68-.48-1.44Z"/>
  <path class="cls-50" d="M144.42,389.63c-.57-3.45-3.71-11.58-3.78-13.66-.05-1.47,1.76-5.97,2.33-7.71,1.35-4.07,3.02-8.09,4.8-11.99.66-.5,1.48,1.7,1.67,2.17.66,1.64,1.2,3.8,1.65,5.55.74,2.86,3.32,14.53,2.91,16.74-.24,1.32-2.25,2.49-3.08,3.66-1.34,1.9-2.01,4.14-3.64,5.72-.1-4.79.12-9.61,0-14.4-.15-.32-.31-.32-.48,0-.54,4.63-1.2,9.24-1.44,13.92-.14.42-.3.41-.48,0-.14.42-.3.41-.48,0Z"/>
  <path class="cls-45" d="M370.4,389.15c2.01,23.19-5.39,39.98-17.55,58.98-7.74,12.09-22.27,27.55-25.15,41.31-.42.12-.58-.36-.48-1.44,3.02-16.01,17.56-32,26.11-46.1,8.06-13.3,17.73-33.71,16.58-49.62-.08-1.11-.29-3.55-1.43-4.09.27-.57.11-1.54.96-1.92.18.95.5,1.91.96,2.88Z"/>
  <path class="cls-50" d="M420.77,491.84c-1.44-4.7-3.27-8.68-5.53-13,1.84-6.51,2.58-14.15,6.73-19.62,1.72.02,4.44,16.7,4.58,18.92.28,4.68-.2,8.01-3.14,11.77-.22-3.51-.57-7.04-.72-10.55-.38-.84-.4-2,0-2.88-.37-.87-.38-2.02,0-2.88-.16-.22-.32-.22-.48,0,.38.81.41,2.03,0,2.88.37.84.38,2.05,0,2.88-.14,2.85-.44,5.7-.48,8.64.07,1.73-.25,3.01-.96,3.84Z"/>
  <path class="cls-50" d="M428.45,476c-.56-3.22-.95-6.47-1.59-9.69-.34-1.71-1.83-5.12-1.75-6.36.11-1.63,7.4-13.7,8.38-13.7,1.5,2.58,1.85,6.75,2.15,9.83s.95,11.95-.25,14.62c-.66,1.48-3.84,3.66-4.07,5.77-.9-.39-.46-2.87-.47-3.83.08-2,.24-3.92.48-5.76-.06-1.28.1-2.4.48-3.36-.12-.65-.28-.81-.48-.48.26,1,.4,2.3-.48,2.88.22,1.1.5,2.78-.48,3.36-.41,2.24-.94,4.5-1.44,6.72-.14.42-.3.41-.48,0Z"/>
  <path class="cls-94" d="M95.47,478.88c-4.3-2.88-8.47-6.73-13.52-8.31-1.32-.42-3.11-.03-4-.8-.54-.47-5.15-12.12-5.4-13.32-.21-1-.12-2-.11-3.01.93-1.27,12.81,10.31,13.9,11.28,1.62,1.44,6.83,4.95,7.72,6.19.35.48,1.64,7.63,1.4,7.95Z"/>
  <path class="cls-50" d="M444.76,513.91c-.64.11-.8-.53-.48-1.92.13-1.93-.24-4.15-.01-6.01.33-2.72,8.14-14.1,10.32-16.55.6-.67,1.37-1.49,2.16-1.91.05,2.12-.29,4.26-.61,6.34-.45,2.89-1.77,10.07-2.86,12.49-.79,1.75-6.66,5.92-8.51,7.56Z"/>
  <path class="cls-50" d="M75.8,451.53c-1.43-1.68-4.38-.41-5.3-.74-1.42-.52-8.37-9.3-9.48-11.11-.7-1.14-4.87-9.23-4.41-9.74,2.3.94,4.49,2.81,6.45,4.34,2.08,1.61,9.81,7.62,10.83,9.32.5.84,2.2,7.53,1.9,7.93Z"/>
  <path class="cls-149" d="M136.74,391.55c-.18,2.61-.56,5.2-.46,7.83l-1.46.8c-.65-8.1-1.66-16.53,1.39-24.28-.21-.77.73-.93,1-.67.34.33,2.35,5.77,2.64,6.72,1.05,3.36,1.91,7.46,2.49,10.95s1.69,7.23.15,10.64c-4.54-3.43-4.3-9.56-4.79-14.87-.46-.29-.27-.95,0-1.44l-.46-.32c.39-1.89.22-1.15-.5,2.24.42.67.36,1.66,0,2.4Z"/>
  <path class="cls-149" d="M471.15,473.13c.72.81-3.14,13.68-4.11,15.32-1.3,2.18-6.76,5.38-8.83,7.23.96-3.12-.25-8.21.84-10.91.75-1.87,8.73-9.43,10.67-10.92.48-.37.61-.93,1.44-.71Z"/>
  <path class="cls-117" d="M402.54,472.16c-1.6,6.5-3.13,12.35-6.47,18.24-3.07,5.41-7.56,9.05-10.8,14.39-.4.34-.56.02-.48-.96.63-2.3,1.14-4.62,2.03-6.84,4.53-8.64,9.68-17.27,15.24-25.31.62-.63.79-.36.48.48Z"/>
  <path class="cls-149" d="M423.17,448.65c0,1.17.29,7.88,0,8.16-.07.07-1.84.06-1.9,0-.75-.73-.7-18.52-.51-20.88.48-5.85,1.85-5.87,4.09-.69,1.06,2.46,3.93,12.14,3.26,14.24-.52,1.63-2.31,3.18-2.77,4.94-1.04-.46-1.04-6.29-1.2-7.68-.36-.92-.68-.28-.96,1.92Z"/>
  <path class="cls-179" d="M429.89,435.7l-.59-.26c-.04-2.48-.17-4.95-.37-7.42-.36-.73-.37-1.68,0-2.4h-.48c.38.63.41,1.74,0,2.4-.18,2.56-.73,5.08-.48,7.68-.83-1.1-3.82-5.83-3.85-6.93-.04-1.55,4.12-16.51,4.83-17.06s1.25.67,1.47,1.16c1.07,2.38,2.71,11.4,2.33,13.92-.27,1.75-2.16,6.77-2.85,8.9Z"/>
  <path class="cls-149" d="M61.41,428.98c-1.06-.77-4.32-2.1-4.82-2.74-1.26-1.6-4.25-9.18-5.14-11.53-.42-1.11-2.86-7.89-2.51-8.28l4.82,3.57c1.33,2.69,5.83,6.39,7.06,8.53.23.39.84,7.55,1.08,9.01.26,1.03.1,1.51-.48,1.44Z"/>
  <path class="cls-46" d="M315.7,491.36c-.05-.06-.83.22-.97-.32-1.25-4.8,2.6-12.37,5.18-16.35,5.9-9.1,12.51-13.97,14.77-25.54.16-.84.86-2.23-.74-1.94.59-.5,1.51-1.03,1.92-1.44.21,5.12-.69,10.5-2.8,15.2-4.62,10.32-16.98,18.03-17.35,30.39Z"/>
  <path class="cls-149" d="M72.93,438.1c-.29.34-3.71-2.55-4.07-2.89-3.15-3.01-3.13-4.3-3.95-8.53-.61-3.15-.75-6.28-1.11-9.45,1.4-.43,3.09,2.69,3.86,3.82,1.36,2,5.26,8.23,5.26,10.09v6.96Z"/>
  <path class="cls-204" d="M378.07,314.3c-.06.28-.16.48-.48.48.39.4-.84,1.02-1.44.96-4.2,1.1-6.35,2.31-11.04,2.88-.69.13-1.88.22-1.92-.48,5.69-2.25,8.29-8.77,4.32-13.91.45-.38,3.12,1.42,3.71,1.81.92.6,7.34,5.43,7.57,5.85.41.72-.68,2.07-.72,2.42Z"/>
  <path class="cls-149" d="M456.28,504.31l1.1-5.13c5.26-3.25,9.3-8.27,14.72-11.18.87,1.19-3.08,10.1-4.08,11.03-.78.73-3.16.83-4.41,1.35-2.58,1.08-4.81,2.8-7.34,3.93Z"/>
  <path class="cls-15" d="M417.9,417.46c-.2-1.41-.78-2.77-.48-4.32.28-.3,7.06,2.29,7.21,3.59.07.61-2.61,11.33-2.9,11.87-.31.57-1.28.73-1.85,1.63-1.03,1.58-.65,3.46-1.5,4.98-.51-1.24-.35-3.98.48-5.04-.87-1.36-.74-5.6,0-7.2l-.48-.11-.48-5.41Z"/>
  <path class="cls-200" d="M483.63,472.16v.48c-1.17,3.45-6.28,12.05-9.63,13.2-.98.34-2.62-.27-3.8.23.99-1.76,1.09-4.46,2.39-6.01,1.53-1.82,8.76-6.77,11.05-7.91Z"/>
  <path class="cls-90" d="M434.21,435.22c-.59,3.42-.79,9.53-4.07,11.04-1.59.04,3.29-19.19,5.76-20.16,1.93,5.9-.32,12.17-.24,18.23-.59.79-.87,0-.96-.71-.32-2.52.12-5.75,0-8.41-.15-.66-.31-.66-.48,0Z"/>
  <path class="cls-111" d="M124.26,486.56c-.46-.88-2.79-4.66-2.79-4.94.02-1.15,2.19-6.54,2.65-8.39.58-2.34.76-4.68,1.11-7.05.1-.65.26-1.56.94-.73-.38,1.71,3.26,11.5,2.88,11.99-.11.14-2.23.25-3.12,1.45-.75,1-1.05,3.49-1.2,4.8.32.93.7,3.21-.48,2.88Z"/>
  <path class="cls-88" d="M131.46,509.59l4.8,14.88-6.72-2.74c-1.01-2.42-.01-8.94.92-11.47.24-.66-.17-.82,1-.67Z"/>
  <path class="cls-88" d="M480.75,471.2c-.25-.33,1.38-7.47,1.7-8.13.28-.58,5.21-6.24,5.97-6.98.28-.27,1.8-1.35,1.92-1.2.12,1.56-.66,2.92-1.21,4.3-1.79,4.49-3.72,10.06-8.38,12.01Z"/>
  <path class="cls-220" d="M359.36,318.13c.87.34,1.67.34,2.4,0,.47.02.99-.06,1.44,0,.31.04,1.15.86,1.92.48-5.1.62-9.56,1.11-14.39-1.44-5.81-3.06-2.46-4.71.95-8.16.22,5.41,2.59,7.95,7.68,9.12Z"/>
  <path class="cls-88" d="M479.79,464.01c-.83,4.93-1.3,10.65-6.71,12.47.57-2.01.22-4.17.84-6.11.54-1.69,4.06-6.33,5.39-7.8.58-.31.74.17.48,1.44Z"/>
  <path class="cls-38" d="M390.06,504.79l2.88,10.56-6.75-3.64c-.14-.83,2.19-5.35,2.8-6.29.3-.47-.05-.86,1.07-.62Z"/>
  <path class="cls-51" d="M359.67,306.74c3.53-.38,3.91,4.65.87,5.16-4.26.71-3.94-4.83-.87-5.16Z"/>
  <path class="cls-221" d="M242.77,170.34c.71-.23.84-.21.48.48-4.35,2.26-9.5,5.27-13.43,8.16l-.96-.48c4.86-3.42,8.61-5.56,13.91-8.16Z"/>
  <path class="cls-154" d="M418.37,435.22c0,.32,0,.64,0,.96-.92.68-.36,2.31-.48,3.36-.14.42-.3.41-.48,0,.61-7.33.48-14.71.48-22.07.18,1.28.96,4.32.96,5.52v7.2c0,1.16-.48,3.29-.48,5.04Z"/>
  <path class="cls-217" d="M489.38,465.45c-1.11,3.12-2.18,6.08-3.36,9.12h-.48c1.19-2.9,2.1-6.33,3.36-9.6.5-.69.66-.53.48.48Z"/>
  <path class="cls-123" d="M286.43,182.34c-2.31,1.53-6.3,4.72-8.16,6.72l-.48-.48c2.95-2.95,4.52-4.46,8.16-6.72.78-.35.93-.28.48.48Z"/>
  <path class="cls-121" d="M473.07,298.46h.48c-.78.61-2.19,3.04-3.21,3.28-1.18.28-2.2-.7-3.03-.88l5.76-2.4Z"/>
  <path class="cls-16" d="M365.6,480.8c.01.49-.47,2.53-.48,3.84-.86-3.55-.5-7.8-.48-11.52.14-.42.3-.41.48,0,.12,2.57.42,5.11.48,7.68Z"/>
  <path class="cls-196" d="M285.95,132.92c-2.77-.12-5.62-.04-8.4,0-.81,0-2.13-.31-2.63.49-.59-.18-1.31-.1-1.44-.95,4.05.29,8.57-.62,12.47.48Z"/>
  <path class="cls-180" d="M250.93,85.89l8.15.95c-2.96-.08-5.95.12-8.91.02-.62-.02-1.1-.5-1.16-.5l1.92-.48Z"/>
  <path class="cls-105" d="M214.47,225.53c-.91,2.67-1.46,3.82-2.88,6.24l-.48-.96c1.19-1.8,2.13-3.73,2.88-5.76.45-.62.61-.47.48.48Z"/>
  <path class="cls-48" d="M80.6,333.97c.92.84,3,.51,4.32.48-2.91,1.09-6.52.2-9.59.47l5.28-.95Z"/>
  <path class="cls-216" d="M150.65,444.33c.04,2.09.37,4.93-.48,6.72,0-1.35.39-3.37-.48-4.32.21-1.58.27-3.23.48-4.8.59.2.75,1,.48,2.4Z"/>
  <path class="cls-100" d="M170.8,476.48c-.16.65-.2,2.35-.95,2.4.28-3.07-.62-6.69.47-9.59.02,2.29-.42,5.21.48,7.2Z"/>
  <path class="cls-119" d="M204.87,382.91c.39,1.41.39,2.69,0,3.84-.14.42-.3.41-.48,0-.07-1.65-.44-3.15-.48-4.8,0-.22.49-2.16.48-3.36.86.94.48,2.97.48,4.32Z"/>
  <path class="cls-65" d="M429.89,435.7c-.19.59-.09,1.31-.95,1.44-.03-3.03.03-6.08,0-9.12,1.36,2.02-.4,5.57.96,7.68Z"/>
  <path class="cls-98" d="M381.43,408.35c-.02,1.65-.34,2.59-.48,3.84l-.48-1.44c.26-1.91.34-3.84.48-5.76.93.25,1.09,1.37.48,3.36Z"/>
  <path class="cls-32" d="M85.88,340.69l1.92.48c-.1,0-.53.46-1.16.5-1.98.13-4.04-.13-6.03-.02l5.28-.95Z"/>
  <path class="cls-83" d="M423.17,311.42c.63.64.36.84-.48.48-1.42-.79-2.89-1.63-4.32-2.4l.96-.48c1.25.82,2.58,1.57,3.84,2.4Z"/>
  <path class="cls-60" d="M327.22,493.28c-.18,1.44-.49,2.86-.48,4.32-.47-.13-.77-.42-.96-.48,1-1.24.31-3.44.46-5.08.06-.63.48-1.05.5-1.16.26.61.42,1.41.48,2.4Z"/>
  <path class="cls-55" d="M352.64,104.13c2.22.19,4.49.25,6.71.48l-4.8.48-1.92-.96Z"/>
  <path class="cls-166" d="M431.33,466.89c.13,1.68.3,4.42-.48,5.76-.02-1.05.36-2.7-.48-3.36.2-1.11.29-2.26.48-3.36.7-.94.88.08.48.96Z"/>
  <path class="cls-129" d="M509.53,304.22c.42.13.35.69,0,.96-1.18-.89-2.23-1.92-3.36-2.88-.64-.67-.37-.92.48-.48.93.73,2.39,1.2,2.88,2.4Z"/>
  <path class="cls-128" d="M383.35,440.97c-.22,1.43-.31,2.89-.48,4.32-.77.38-.69-.75-.48-1.44.13-1.67.28-3.23.48-4.8l.48,1.92Z"/>
  <path class="cls-146" d="M103.63,305.18c.64.67.37.92-.48.48-1.38-.99-2.6-2.34-3.84-3.36l.48-.48c1.16,1.14,2.6,2.28,3.84,3.36Z"/>
  <path class="cls-138" d="M227.42,46.06l.48.48c-1.2.26-3.17,1.7-4.8,1.43l4.32-1.91Z"/>
  <path class="cls-95" d="M424.13,446.73l-.96,1.92c.01-1.75-.02-3.52,0-5.28.99.39.85,2.49.95,3.36Z"/>
  <path class="cls-3" d="M506.66,301.82l-.48.48c-1.11-.94-2.42-1.74-3.36-2.88,1.66.96,2.14,1.08,3.84,2.4Z"/>
  <path class="cls-223" d="M493.22,455.37c-.43,1.39-1.04,2.63-1.44,3.84-.14.4-.3.4-.48,0,.44-1.23,1.08-2.71,1.44-3.84.14-.42.3-.41.48,0Z"/>
  <path class="cls-210" d="M408.3,278.79c-.02-.77.29-2-.48-2.4.2-.79.22-2.66.95-2.88l-.47,5.28Z"/>
  <path class="cls-202" d="M83.96,346.93c.4.77,1.63.46,2.4.48l-5.28.47c.2-.71,2.14-.8,2.88-.95Z"/>
  <path class="cls-173" d="M438.53,303.74c.64.65.39.63-.48.48-1.54-.39-2.5-.94-3.84-1.44l.96-.48c1.14.59,2.18.97,3.36,1.44Z"/>
  <path class="cls-125" d="M431.33,309.02c.64.67.37.92-.48.48-1.14-.6-2.25-1.33-3.36-1.92l.47-.24-.47-.72c1.27.8,2.57,1.6,3.84,2.4Z"/>
  <path class="cls-2" d="M408.78,462.57c0,.33-.32,1.6-.48,1.92-.55.46-.71.14-.48-.96.1-1.22-.44-3.02.48-3.84,0,1.25.47,2.45.48,2.88Z"/>
  <path class="cls-162" d="M421.73,488c-.01,1,.48,5.96-.96,4.8-.06-.3.07-.71,0-.96l.96-3.84Z"/>
  <path class="cls-193" d="M198.63,390.11l-.48,1.44c-.07-1.13-.39-2.81-.48-4.32.14-.42.3-.41.48,0,.18.95.3,1.93.48,2.88Z"/>
  <path class="cls-112" d="M201.03,259.11c-.47.97-.34,2.02-1.44,2.88-.06.05-.99-.33-1.44.48.74-1.05,1.81-2.26,2.4-3.36.14-.28.3-.28.48,0Z"/>
  <path class="cls-199" d="M490.34,463.05c-.5.69-.66.53-.48-.48.43-1.12,1.03-2.21,1.44-3.36h.48c-.43,1.32-1,2.56-1.44,3.84Z"/>
  <path class="cls-228" d="M81.08,309.98c.8.6,2.47.95,2.88,1.91-1.49.3-2.38-.94-3.36-1.43l.48-.48Z"/>
  <path class="cls-135" d="M441.88,298.46c.42.14.41.3,0,.48-.5-.13-1.25,0-1.95-.21-.63-.18-1.08-.65-1.4-.75l.48-.48c.87.37,1.98.62,2.88.96Z"/>
  <path class="cls-135" d="M103.63,272.55c.64.67.37.92-.48.48-.79-.67-1.36-1.45-1.92-1.92l.47-.24-.47-.72c.73.78,1.6,1.49,2.4,2.4Z"/>
  <path class="cls-143" d="M152.57,404.03l-.48-1.44c.16-.74.24-2.68.95-2.88.49,1.49-.39,3.31-.47,4.32Z"/>
  <path class="cls-218" d="M124.74,483.68c.99.98.3,2.96.47,4.32-.63.16-.62-.78-.95-1.44.87-.54.38-1.99.48-2.88Z"/>
  <path class="cls-133" d="M106.51,296.54c-.15.22-.31.22-.48,0-.93-.83-1.63-1.7-2.4-2.4h.48c.67.74,1.61,1.55,2.4,2.4Z"/>
  <path class="cls-209" d="M137.7,387.23l-.48,1.44c0,.16.01.32,0,.48-.14.42-.3.41-.48,0,.06-1.22-.21-3.58.95-3.84.04.63-.03,1.28,0,1.92Z"/>
  <path class="cls-73" d="M417.9,439.53c-.14,1.26-.73,2.71-.96,3.84-.47-1.34.41-3.01.48-3.84h.48Z"/>
  <path class="cls-212" d="M122.35,432.34c0,.05-.66.46-.48.96-.03-.54-1.01-2.19-.47-3.36h.47c-.08.79.48,1.71.49,2.4Z"/>
  <path class="cls-226" d="M378.07,314.78c0,.08.43.6.48,1.44-.84-1.74-.83-.42-1.89-.24-.35.06-.49-.25-.51-.24l1.44-.96h.48Z"/>
  <path class="cls-141" d="M490.34,463.05c-.33.96-.72,1.73-.96,2.4l-.48-.48c.31-.8.65-1.59.96-2.4l.48.48Z"/>
  <path class="cls-125" d="M88.76,353.64v.96c-.73,0-2.77-.79-3.84-.72,0-.47,3.16-.18,3.84-.24Z"/>
  <path class="cls-81" d="M436.61,510.07c-.36.68-.58,1.69-1.43,1.92-.2-1.03.78-2.1.95-2.88.43-.4.59-.08.48.96Z"/>
  <path class="cls-4" d="M418.37,317.18c.64.67.37.92-.48.48-.71-.45-1.31-1.05-1.92-1.44l.48-.48c.61.5,1.31.94,1.92,1.44Z"/>
  <path class="cls-79" d="M95.48,308.54c.64.67.37.92-.48.48-.71-.45-1.3-1.03-1.92-1.44l.48-.48c.61.51,1.29.97,1.92,1.44Z"/>
  <path class="cls-115" d="M104.11,283.11c.45.71.28.94-.48.48-.77-.66-1.38-1.46-1.92-1.92h.48c.47.49,1.42.94,1.92,1.44Z"/>
  <path class="cls-104" d="M95.48,358.44l.48.48c-.46.08-1.17.34-1.92.48-.86.19-1.18.03-.96-.48.71-.21,1.59-.21,2.4-.48Z"/>
  <path class="cls-227" d="M437.09,508.63c-.28.5-.3,1.09-.48,1.44l-.48-.96c.11-.48.47-1.82.48-1.92l.48,1.44Z"/>
  <path class="cls-130" d="M224.54,388.19l-.48.48c-.08-.15-.66-.92-.96-1.44-.37-.76-.28-.93.48-.48.34.47.62.98.96,1.44Z"/>
  <path class="cls-21" d="M109.87,330.61c1.89-.06,1.01.95,0,1.92v-1.92Z"/>
  <path class="cls-162" d="M145.38,389.63c-.06,1.28.54,2.79-.96,2.4-.02-.32.01-.64,0-.96,0-.65.16-1.13.48-1.44h.48Z"/>
  <path class="cls-208" d="M444.76,513.91c-.27.24-.38,1-.95.96-.5-.98.46-2.64.47-2.88l.48,1.92Z"/>
  <path class="cls-96" d="M166.01,155.95c.58.16,1.35.15,1.44.95-.62.07-1.31-.08-1.92,0l.48-.96Z"/>
  <path class="cls-103" d="M422.69,479.36h-.48c.05-.96-.05-1.92,0-2.88.14-.42.3-.41.48,0,.01.96-.04,1.92,0,2.88Z"/>
  <path class="cls-198" d="M61.89,427.54c.08.5.89,1.44.47,2.4-.57.05-.7-.78-.95-.96l.48-1.44Z"/>
  <path class="cls-82" d="M493.22,455.37h-.48c.15-.48-.16-1.46,0-1.92.04-.11.75-.31.96-.48-.24.8-.27,1.73-.48,2.4Z"/>
  <path class="cls-162" d="M138.18,427.54h-.48c.01-.6-.2-2.88.24-2.88.53.72.14,2,.24,2.88Z"/>
  <path class="cls-22" d="M351.68,306.14c-.42.37-.67,1.35-1.43,1.44-.31-.96.68-1.36.95-1.92l.48.48Z"/>
  <path class="cls-157" d="M479.79,464.01l-.48-1.44c.26-.29.38-.98.95-.96.41.97-.39,1.88-.47,2.4Z"/>
  <path class="cls-187" d="M116.11,359.4l-.96,1.44c.13-.9-.26-2.09.95-2.4.05.31-.05.68,0,.96Z"/>
  <path class="cls-224" d="M174.64,454.41c-.09.72.29,1.89-.24,2.4-.44,0-.23-1.86-.24-2.4h.48Z"/>
  <path class="cls-76" d="M136.74,391.55c.06-.79-.04-1.6,0-2.4h.48c-.05.77.31,1.99-.48,2.4Z"/>
  <path class="cls-40" d="M147.29,375.72h-.48c.08-.72-.28-1.89.24-2.4.44,0,.23,1.86.24,2.4Z"/>
  <path class="cls-5" d="M428.93,428.02h-.48c.06-.79-.03-1.6,0-2.4.14-.42.3-.41.48,0,.03.8,0,1.6,0,2.4Z"/>
  <path class="cls-214" d="M385.27,504.79c-.18.3-.31.65-.48.96-.14.35-.3.35-.48,0,.16-.76.28-1.2.48-1.92l.48.96Z"/>
  <path class="cls-93" d="M361.76,318.13c-.69,1.24-1.87.12-2.4,0,.8.02,1.6-.03,2.4,0Z"/>
  <path class="cls-107" d="M131.46,408.35c-.06.28.04.65,0,.96-1.05-.22-.83-1.14-.95-1.92l.96.96Z"/>
  <path class="cls-24" d="M408.3,464.49c-.2.41-.43.94-.95.96-.37-.76.45-1.64.47-1.92l.48.96Z"/>
  <path class="cls-61" d="M402.54,472.16l-.48-.48c.24-.35.39-.96.95-.96.3.76-.4,1.12-.47,1.44Z"/>
  <path class="cls-139" d="M384.79,505.75c-.23.41-.4,1.46-.72,1.44-.78-.34.19-1.23.24-1.44h.48Z"/>
  <path class="cls-98" d="M380.47,415.54c.12-.71.45-1.71.48-1.92l-.48,1.92Z"/>
  <path class="cls-152" d="M370.4,389.15c-.96-.63-1.02-1.83-.96-2.88h.48c-.1,1.13.4,1.95.48,2.88Z"/>
  <path class="cls-98" d="M379.99,413.14l.48-1.44c-.13.79-.46,1.33-.48,1.44Z"/>
  <path class="cls-29" d="M379.51,309.02s.18,1.02-.24.95c-1.31-.75-.32-1.5.24-.95Z"/>
  <path class="cls-92" d="M510.01,304.22c.04.47-.02.97,0,1.44-.53.08-.45-.46-.47-.48-.06-.29.09-.75,0-.96h.48Z"/>
  <path class="cls-64" d="M384.31,309.02c.11-.04.08-.75.96-.48.04.57-.71.68-.96.95v-.48Z"/>
  <path class="cls-158" d="M217.34,129.08c.45.08,1.44-.24,1.44.24-.14.5-1,.17-1.44.24v-.48Z"/>
  <path class="cls-76" d="M137.7,388.67h-.48c.02-.53-.15-1.2.48-1.44.03.48-.04.97,0,1.44Z"/>
  <path class="cls-181" d="M428.93,476c-.1.44.25,1.45-.24,1.44-.5-.14-.16-1-.24-1.44h.48Z"/>
  <path class="cls-62" d="M125.22,140.59v.48c-.45-.08-1.45.24-1.44-.24.14-.49,1-.19,1.44-.24Z"/>
  <path class="cls-191" d="M391.99,214.49c.04.1.75.08.48.96-.57.06-.71-.8-.95-.96h.48Z"/>
  <path class="cls-211" d="M144.42,391.07c-.02-.47.07-1.01,0-1.44h.48l-.48,1.44Z"/>
  <path class="cls-107" d="M276.84,146.35c.44.02,1.32-.23,1.44.24,0,.49-1.01.14-1.44.24v-.48Z"/>
  <path class="cls-213" d="M474.51,297.98c-.35.26-.8.35-.96.48h-.48l1.44-.48Z"/>
  <path class="cls-163" d="M434.69,435.22h-.48c.08-.45-.24-1.45.24-1.44.47.13.22,1.01.24,1.44Z"/>
  <path class="cls-86" d="M112.75,345.97h-.48c.09-.44-.24-1.45.24-1.44.47.13.22,1.01.24,1.44Z"/>
  <path class="cls-176" d="M483.63,472.64v-.48c.51-.25,1.08-.9,0,.48Z"/>
  <path class="cls-144" d="M364.64,297.98v.48c-.35-.09-.97.23-.96-.24,0-.43.63-.22.96-.24Z"/>
  <path class="cls-205" d="M452.44,295.1c-1.1-.5-1.86-.92-2.88-1.44.93.47,1.95,1,2.88,1.44Z"/>
  <path class="cls-136" d="M449.56,293.66c-.32-.16-.64-.31-.96-.48.31.16.64.32.96.48Z"/>
  <path class="cls-19" d="M447.64,292.7c-.32-.16-.64-.31-.96-.48.32.16.63.3.96.48Z"/>
  <path class="cls-134" d="M446.68,292.22c-.31-.17-.64-.31-.96-.48.32.16.64.32.96.48Z"/>
  <path class="cls-197" d="M445.72,291.74c-.31-.17-.64-.31-.96-.48.32.16.64.32.96.48Z"/>
  <path class="cls-102" d="M444.76,291.26c-.27-.15-.73-.12-.96-.48.43-.02.68.34.96.48Z"/>
  <path class="cls-125" d="M427.01,306.62c-.5-.31-.96-.66-1.44-.96.7,0,1.23.27,1.44.96Z"/>
  <path class="cls-25" d="M448.6,293.18c-.32-.16-.64-.31-.96-.48.3.16.64.32.96.48Z"/>
  <path class="cls-164" d="M455.32,296.54c-.34-.15-.64-.34-.96-.48.29.14.74.07.96.48Z"/>
  <path class="cls-87" d="M454.36,296.06c-.33-.15-.64-.33-.96-.48.36.15.64.33.96.48Z"/>
  <path class="cls-12" d="M453.4,295.58c-.33-.15-.64-.33-.96-.48.34.15.68.36.96.48Z"/>
  <path class="cls-124" d="M206.31,425.62c-.09.36.23.96-.24.96l-.24-.96h.48Z"/>
  <path class="cls-112" d="M198.63,263.43c.25-.44.43-.8.96-.96l-.96.96Z"/>
  <path class="cls-93" d="M378.07,314.78h-.48l.48-.48c-.02.15,0,.32,0,.48Z"/>
  <path class="cls-132" d="M289.18,385.42c3.6-.82,7.75,2,11.16,3.02,9.78,2.92,19.9.54,28.16,3.98,1.08.45,2.54,1.8,3.38,1.93,1.02.16,5.11-2.18,6.83-2.59,1.85-.44,8.38-1.57,8.18,1.42-.03.52-3.42,8.57-3.93,9.55-5.98,11.26-19.56,16.02-31.11,10.19s-16.3-17.51-24.44-26.41c.47-.55,1.07-.93,1.78-1.09Z"/>
  <path class="cls-153" d="M304.67,304.7c.76,0,1.58,1.17,1.44,1.92.74.12,1.28.73.96,1.44.66.68.4.94-.48.48-.27.31-.6.45-.99.38l-7.36-5.66c1.56,5.23-.62,13.49-7,13.43-1.18.76-4.02.82-5.28,0h-.48l-.96-.48c-4.18.14-4.87-5.4-4.97-8.77l-3.37,3.11c1.18.98,1.56,1.91,1.15,2.79.64.67.37.92-.48.48-.21-.14-.75-.15-1.2-.46-.68-.48-1.24-1.65-2.02-1.87-1.83-.5-4.46,2.33-6.37-.31,1.62-.52,3.55-.57,4.79-1.92l-3.83-2.15c1.38.1,6.29.78,7.2,0,1.33-1.15-4.21-1.51-2.88-3.36.17-.24,4.57,1.15,5.75.47.23-.93-3.45-1.42-2.4-2.39.15-.14,2.7.67,4.05.46s2.02-1.25,3.15-1.66c8.25-2.99,15.08-1.98,21.59,4.08Z"/>
  <path class="cls-204" d="M306.58,308.54c3.62.14,2.38,4.98-.48,5.28-2.57,2.31-9.08,2.98-12.47,3.36-.77.14-2.21.27-2.4-.48,6.47-2.52,7.92-9.34,5.28-15.35.5-.61,9.3,6.36,10.07,7.2Z"/>
  <path class="cls-58" d="M305.14,304.22c-5.53-6.48-11.61-8.62-20.15-8.64-.2-.48,1.12-.95,1.2-.95h7.68c1.6,0,7.07,2.83,8.55,3.92,2.37,1.75,8.73,9.86,7.95,12.57-.07.25-3.25,3.24-3.74,3.47-1.31.61-1.1,0-.53-.77,2.18-1.96,2.4-3.18.48-5.28.2-.07.45-.49.48-.48.71.55.55-.09-.48-1.92-.72-.17-1.44-1.18-1.44-1.92Z"/>
  <path class="cls-142" d="M284.51,316.22l.96.48c.13.05.32-.04.48,0,.37.27.21.43-.48.48-.46-.06-1.03.09-1.44,0l-.96-.48c-1.67-.53-1.73-.33-3.36-1.44-1.01-.21-2.26-.91-2.4-1.92-.43-.43-2.5-2.7-2.4-3.1l5.75-5.05c-.17,4.35-.39,8.58,3.84,11.04Z"/>
  <path class="cls-174" d="M320.5,370.44c2.74-4.46,6.93-.13,9.75,1.54.24.14,3.78,1.06,1.04,1.35-4.49.48-6.54-4.84-10.31-1.46-.34.46-.66.62-.96.48-.05-.18-.03-.73,0-.96l.48-.96Z"/>
  <path class="cls-174" d="M311.86,369c-1.78-4.06.16-9.11,5.03-9.13.98,0,1.41-.29,1.21.97-4.79.95-4.67,4.2-5.28,8.16,0,.76-.46.46-.96,0Z"/>
  <path class="cls-185" d="M291.23,316.7c.21,0,1.61.94,2.4.48-3.58.4-4.55.48-8.16,0l.48-.48c2.76.71,3.18.01,5.28,0Z"/>
  <path class="cls-159" d="M279.72,315.26c-1.62.34-2.11-.93-2.88-1.44l.48-.48c.31.3,2,1.65,2.4,1.92Z"/>
  <path class="cls-72" d="M306.58,306.14c.64.67.37.92-.48.48-.4-.55-1-1.51-1.44-1.92l.48-.48c.68.8.87,1.08,1.44,1.92Z"/>
  <path class="cls-148" d="M223.58,386.75l-.48.48c-.26-.44-.64-.89-.96-1.44-.64-.67-.37-.92.48-.48.35.45.62.98.96,1.44Z"/>
  <path class="cls-77" d="M222.62,385.31l-.48.48c-.35-.6-1.23-.96-.95-1.92.73.15,1.03.93,1.43,1.44Z"/>
  <path class="cls-14" d="M312.82,369c-.05.3.03.65,0,.96-.25.23-.8-.61-.95-.96h.96Z"/>
  <path class="cls-222" d="M320.02,371.4c.09-.58.27-.61.48-.96l-.48.96Z"/>
  <path class="cls-185" d="M284.03,317.18c-.73-.16-.91-.46-.96-.48l.96.48Z"/>
  <path class="cls-222" d="M320.02,372.36l.96-.48c-.37.33-.63,1.55-.96.48Z"/>
  <path class="cls-41" d="M168.28,598.47c5.4-1.4.84,8.32-.18,10.39-1.48,3.03-7.97,12.78-11.09,13.42-5.17,1.06-.42-9,.58-10.97,1.49-2.94,7.63-12.05,10.68-12.84Z"/>
  <path class="cls-74" d="M349.14,603.22c2.89-.74,2.16,6.07,1.94,7.74-.42,3.06-2.09,7.16-5.34,8.01-3.38-2.11.86-15.09,3.41-15.74Z"/>
  <path class="cls-74" d="M450.85,579.23c2.66-.7,2.7,6.66,2.54,8.34s-1.84,8.01-4.08,7.82c-3.7-1.92-1.33-15.4,1.54-16.15Z"/>
  <path class="cls-153" d="M356.48,75.34c.76-.16,2.07-.38,1.92.48-3.48.86-6.4,3.02-9.96,3.72-11.12,2.17-23.76.68-34.88.1-8.2-.43-16.26,1.74-24.48.98-3.24-.3-6.45-1.81-9.66-2.33-5.65-.92-15.81-1.89-21.51-1.99-4.15-.08-7.76,1.23-11.78,1.94-1.07.18-1.71.02-1.92-.48,10.46-2.96,11.93-4.32,23.77-4.34,2.95,0,6.71-.13,9.57.03,4.34.23,8.65,2.1,12.94,2.41,7.81.57,16.19-1.6,24.51-1,15.59,1.13,25.48,3.43,41.48.5Z"/>
  <path class="cls-153" d="M343.53,128.12c7.75-.26,13.77.03,21.36.47,9.01.53,16.59-2.11,25.45-1.94,9.98.19,20.92,2.36,30.68,2.46,3.56.03,7.54-1.4,11.03-1.49,1.02-.03,1.99-.39,1.7.98-4.61.28-8.49,2.93-13.2,3.35-12.1,1.08-25.42-.86-37.43-.01-5.25.37-9.07,1.86-14.79,1.4-8.49-.69-18.84-3.13-27.65-4.26.42-.64,1.38-.96,2.88-.96Z"/>
  <path class="cls-153" d="M413.09,89.26c.12.83-1.09.46-1.67.48-4.18.13-7.37-1.87-11.04-1.92-4.62-.05-18.34.56-22.29,1.7-4.33,1.25-6.62,3.21-11.79,3.13s-9.82-2.49-14.86-2.9-9.54.66-14.38.47c-1.3-.05-16.57-1.79-16.56-2.63,5.3-.88,10.75-.34,16.07-.72,6.32-.45,12.22-2.02,18.71-1.43,4.94.45,8.29,2.54,13.92,1.91,2.74-.3,5.26-2.05,7.89-2.67,4.76-1.12,21.96-.31,26.68,1.2,3.08.99,5.77,3.59,9.33,3.39Z"/>
  <path class="cls-153" d="M437.08,114.69l-4.56.95c-9.35.83-19.53.21-28.77.97-3.64.3-7.26,1.72-11.02,1.93-5.9.33-15.05-.77-21.13-1.47-4.08-.47-8.25-1.25-12.24-2.16l13.18-1.22c16.6.83,31.3-2.82,47.99-1.41,5.56.47,11.05,1.61,16.56,2.4Z"/>
  <path class="cls-153" d="M486.02,207.3l-4.56.95c-15.95,1.38-28.73,2.63-44.68,1.02-7.6-.77-15.37-.98-22.73-3.18l13.66-1.22c11.05.6,22.12.11,33.11,0,8.61-.09,16.77.82,25.21,2.42Z"/>
  <path class="cls-153" d="M441.88,142.04c.08.71-1.24.85-1.72.91-5.38.69-10.9.5-16.27,1.01-7.85.75-14.44,2.42-22.58,1.94-3.37-.2-6.71-1.14-10.06-1.46-7.3-.7-14.69-.75-21.83-2.64,0-.18,3.07-.66,3.61-.72,14.52-1.49,29.09-.39,43.64-.98,8.6-.35,16.75.76,25.21,1.94Z"/>
  <path class="cls-153" d="M491.78,231.77c-.77,1.16-4.07,1.32-5.52,1.43-7.75.58-15.32,1.2-23.03,1.92-9.84.92-21.21-.74-31.12-1.98-3.93-.49-7.93-1.4-11.82-2.1,0-.42,7.47-1.13,8.41-1.19,14.27-.95,28.02,1.73,42.19-.5l20.89,2.42Z"/>
  <path class="cls-153" d="M480.74,193.86l-4.56.95c-15.96,1.37-28.73,2.65-44.68,1.02-7.6-.78-15.37-.97-22.73-3.18l13.66-1.22c11.02.52,21.71.43,32.65.02,8.72-.32,17.12.96,25.66,2.4Z"/>
  <path class="cls-153" d="M461.07,154.03l-6.48,1.43c-10.76-.44-22.04,3.49-32.62,2.88-3.08-.18-6.52-1.15-9.61-1.43-1.87-.17-21.87-1.32-21.83-2.65,1.34-.19,2.74-.57,4.09-.72,14.35-1.59,29.2-.8,43.64-1.46,7.67-.35,15.22,1.25,22.81,1.95Z"/>
  <path class="cls-52" d="M380.95,61.9c-.6,1.12-3.36,1.33-4.56,1.43-13.53,1.09-30.63.92-44.13-.48-.8-.08-6.48-.86-6.49-1.19,17.98-4.67,37.14-3.58,55.18.24Z"/>
  <path class="cls-52" d="M427.49,102.21l-4.69,1.29c-14.56,1.96-29.98,1.47-44.25-2.02,16.01-3.7,32.9-2.13,48.94.73Z"/>
  <path class="cls-153" d="M434.69,168.42c-7.82,1.87-14.68,3.19-22.81,2.9-7.47-.27-17.2-1.22-24.45-2.91-.74-.17-.84.32-.72-.95l19.41-1.94c7.85,1.45,16.14.83,24,1.46,1.21.1,3.97.31,4.56,1.43Z"/>
  <path class="cls-153" d="M471.63,180.43l-9.57,2.66c-12.75,1.71-25.8-.18-38.41-2.19-.12-1.29,0-.77.72-.95,10.88-2.64,23.49-1.16,34.53-.47,4.25.27,8.6-.48,12.73.95Z"/>
  <path class="cls-52" d="M423.17,271.59c8.93-2.92,28.77-2.17,37.73.9.63.21,1.46.14,1.62,1.02-12.88,2.18-27.11,2.28-39.82-.95-.56-.18-.4-.5.48-.96Z"/>
  <path class="cls-52" d="M488.9,220.73c.73.03.72.77,0,.96-11.8,2.79-27.09,1.57-38.86-.96-.73-.03-.72-.77,0-.96,12.3-3.58,26.62-1.68,38.86.96Z"/>
  <path class="cls-153" d="M500.42,258.16c0,.75-1.51.87-2.09,1.02-7.84,1.96-21.6,1.44-29.73.34-1.01-.14-8.97-1.47-8.96-2.08,13.32-3.47,27.52-2.68,40.78.73Z"/>
  <path class="cls-52" d="M142.02,206.82c-.81,1.21-3.29,1.48-4.7,1.77-7.83,1.64-17.81,1.95-25.76,1.1-2.98-.32-6.72-.81-9.36-2.16,12.92-3.64,26.72-3.25,39.82-.71Z"/>
  <path class="cls-153" d="M127.14,219.77c.11.69-.83.65-1.33.81-9.35,3.03-26.51,2.99-36.1.88-.54-.12-2.87-.63-2.87-.98,13.04-3.74,27.07-3.3,40.3-.71Z"/>
  <path class="cls-153" d="M476.91,246.64c.12.74-.9.56-1.44.7-8.54,2.21-24.42,1.68-33.19.1-.77-.14-6.15-1.2-6.15-1.53,13.08-3.7,27.69-2.69,40.78.73Z"/>
  <path class="cls-52" d="M501.38,273.52c.57.73-4.73,2.06-5.26,2.17-7.16,1.51-15.76,2.02-22.56-.98,8.75-3.7,18.78-4.13,27.82-1.19Z"/>
  <path class="cls-52" d="M440.92,219.77c.59.76-4.11,1.78-4.61,1.86-6.04,1.05-14.51.8-20.34-1.15-.4-.13-3.33-.75-2.4-1.68.73-.72,12.38-1.98,14.17-1.95,4.35.07,9.04,1.7,13.18,2.91Z"/>
  <path class="cls-170" d="M331.53,116.6l2.88.47c-2.25.49-4.44.42-6.71.48l3.84-.96Z"/>
  <path class="cls-43" d="M356.48,75.34c1.7-.31,3.38-.79,5.28-.47-.24.7-2.77.97-3.36.95-.1,0-1.1-.92-1.92-.48Z"/>
  <path class="cls-8" d="M343.53,128.12l-2.88.96c-.62-.08-1.29.06-1.92,0,.5-1.32,3.29-.9,4.8-.95Z"/>
  <path class="cls-49" d="M244.21,77.73l1.92.48c-1.51.27-2.99.83-4.8.47.23-.76,2.06-.72,2.88-.95Z"/>
  <path class="cls-177" d="M450.04,219.77v.96c-.67-.14-1.13.39-.96-.71-.02-.49.67-.16.96-.24Z"/>
  <path class="cls-109" d="M488.9,220.73c.67.14,1.14-.39.96.71.02.48-.65.17-.96.24v-.96Z"/>
  <path class="cls-177" d="M423.17,271.59l-.48.96c-.3-.08-.97.23-.96-.24.37-.63.9-.55,1.44-.72Z"/>
  <path class="cls-153" d="M281.64,169.86c.69-.22.83-.2.48.48-23.07,12.46-43.66,44.33-52.79,68.37-9.98,26.29-13.17,43.32-33.1,65.03-.67.64-.92.37-.48-.48,16.14-20.07,20.78-39.39,29.14-62.75,9.78-27.32,29.95-57.89,56.75-70.65Z"/>
  <path class="cls-225" d="M196.23,303.74c-.95,1.04-1.61,2.38-2.62,3.4-.65.65-1.58.8-1.7.92v-.48c1.1-1.21,2.88-3.13,3.84-4.32l.48.48Z"/>
  <path class="cls-33" d="M249.01,167.46c.59-.13.74-.1.48.48-2.15.88-4.18,1.81-6.24,2.88l-.48-.48c2.25-1.1,3.83-1.92,6.24-2.88Z"/>
  <path class="cls-178" d="M285.95,167.94c.58-.12.73-.1.48.48-1.43.61-2.95,1.18-4.32,1.92l-.48-.48c1.63-.78,2.49-1.25,4.32-1.92Z"/>
  <path class="cls-10" d="M255.73,165.07c1.72-.52,3.4-1.42,5.27-1.43l-4.8,1.91c-.42,0-.61-.02-.48-.48Z"/>
  <path class="cls-33" d="M289.79,180.42c-1.08.56-2.36,1.25-3.36,1.92l-.48-.48c1.13-.7,2.16-1.32,3.36-1.92.68-.21.82-.18.48.48Z"/>
  <path class="cls-145" d="M252.85,166.03c.54-.09.7-.06.48.48-1.31.48-2.54.91-3.84,1.44l-.48-.48c1.31-.52,2.5-.98,3.84-1.44Z"/>
  <path class="cls-70" d="M292.67,178.5c.57-.12.72-.09.48.48-1.15.48-2.24.86-3.36,1.44l-.48-.48c1.23-.61,2.11-.94,3.36-1.44Z"/>
  <path class="cls-35" d="M215.42,222.17c-.3,1.65-.48,1.95-.96,3.36l-.48-.48c.47-1.29.66-2.04.96-3.36.32-.45.48-.29.48.48Z"/>
  <path class="cls-137" d="M288.83,166.98c.72-.23.85-.22.48.48-.9.35-1.89.54-2.88.96l-.48-.48c1.15-.42,1.51-.65,2.88-.96Z"/>
  <path class="cls-69" d="M295.55,177.54c.9-.27,2.28-1.4,3.36-.72-.92.71-2.3.83-3.36,1.2-.42-.14-.41-.3,0-.48Z"/>
  <path class="cls-20" d="M215.42,222.17l-.48-.48c.29-1.27.34-2.11.48-3.36.14-.42.3-.41.48,0,.09,1.78-.22,2.4-.48,3.84Z"/>
  <path class="cls-56" d="M255.73,165.07l.48.48c-1.03.13-1.93.62-2.88.96l-.48-.48c.98-.34,1.88-.66,2.88-.96Z"/>
  <path class="cls-167" d="M295.55,177.54v.48c-.88.31-1.56.61-2.4.96l-.48-.48c1.18-.47,1.7-.61,2.88-.96Z"/>
  <path class="cls-75" d="M190,309.98c-.6.54-1.18,1.25-1.92,1.92-.21-.15-.2-.31,0-.48.63-.64,1.31-1.29,1.92-1.92v.48Z"/>
  <path class="cls-35" d="M191.92,308.06c-.66.64-1.15,1.22-1.92,1.92v-.48c.62-.64,1.41-1.36,1.92-1.92v.48Z"/>
  <path class="cls-28" d="M201.99,257.19c-.36.98-.62,1.23-.96,1.92h-.48c.47-.86.62-1.62.96-2.4.45-.61.61-.45.48.48Z"/>
  <path class="cls-203" d="M188.08,311.9c-.57.52-.77,1.73-1.92,1.43.24-.94,1.37-1.35,1.92-1.91v.48Z"/>
  <path class="cls-53" d="M288.83,166.98c.39-.09,1.07-.87,1.92-.47.16.56-.79.7-1.44.95l-.48-.48Z"/>
  <path class="cls-201" d="M202.47,255.76c-.42.59-.58.43-.48-.48.27-.65.38-1.6.95-1.44.39.84-.37,1.49-.47,1.92Z"/>
  <path class="cls-110" d="M202.47,255.76c-.17.64-.28.88-.48,1.44l-.48-.48c.22-.51.3-1,.48-1.44l.48.48Z"/>
  <path class="cls-116" d="M215.9,218.33h-.48c.05-.45-.22-1.44.24-1.44.47.13.22,1.01.24,1.44Z"/>
  <path class="cls-188" d="M482.67,325.81c1.4-.61,1.4-.29,0,.96-15.98,13.49-34.83,21.35-54.7,27.35-.77.12-1.09-.04-.96-.48,18.67-7.23,39.45-16,55.66-27.83Z"/>
  <path class="cls-188" d="M476.43,311.42c.67-.6.92-.34.48.48-15.63,13.7-35.48,21.89-55.18,27.83-.77.12-1.09-.04-.96-.48,17.82-6.9,40.38-16.47,55.66-27.83Z"/>
  <path class="cls-188" d="M480.27,320.05c-15.29,13.73-34.84,21.65-54.22,27.83-.79.13-1.11-.03-.96-.48,17.6-6.86,39.6-16.58,54.7-27.83.67-.64.92-.37.48.48Z"/>
  <path class="cls-188" d="M484.11,333.01c.67-.58.93-.33.48.48-15.59,13.39-34.31,21.2-53.74,27.35-.77.12-1.09-.04-.96-.48,17.36-6.77,39.26-16.35,54.22-27.35Z"/>
  <path class="cls-195" d="M451,359.4c.98-.29,1.3-.13.96.48-9.53,5.83-20.35,9.9-31.19,12.48-.83.15-1.15-.01-.96-.48,10.32-4.36,20.71-8.51,31.19-12.48Z"/>
  <path class="cls-66" d="M425.09,347.41l.96.48c-1.94.62-3.75,1.36-5.76,1.92-.87.18-1.19.02-.96-.48,1.86-.71,3.88-1.19,5.76-1.92Z"/>
  <path class="cls-186" d="M429.89,360.36l.96.48c-1.6.51-3.2.97-4.8,1.44-.66.23-.81.17-.48-.48,1.4-.52,2.92-.89,4.32-1.44Z"/>
  <path class="cls-172" d="M487.94,330.61c-1.2,1.15-2.16,1.85-3.36,2.88l-.48-.48c.92-.68,2.31-2.03,3.36-2.88.67-.64.92-.37.48.48Z"/>
  <path class="cls-165" d="M480.75,308.54c-1.21,1.15-2.58,2.25-3.84,3.36l-.48-.48c1.13-.84,2.6-2.36,3.84-3.36.67-.64.92-.37.48.48Z"/>
  <path class="cls-71" d="M486.02,323.89c-1.28,1.23-2.09,1.81-3.36,2.88l.47-.72-.47-.24c.85-.62,1.98-1.67,2.88-2.4.67-.64.92-.37.48.48Z"/>
  <path class="cls-207" d="M483.63,317.18c-.9.94-2.35,1.98-3.36,2.88l-.48-.48c.99-.74,2.19-1.99,3.36-2.88.69-.49.94-.28.48.48Z"/>
  <path class="cls-135" d="M421.73,339.73c-1.71.52-2.94.97-4.8,1.44-.42-.14-.41-.3,0-.48,1.27-.49,2.57-.95,3.84-1.44l.96.48Z"/>
  <path class="cls-18" d="M427.97,354.12c-1.71.52-2.94.97-4.8,1.44-.42-.14-.41-.3,0-.48,1.27-.49,2.57-.95,3.84-1.44l.96.48Z"/>
  <path class="cls-89" d="M486.02,323.89l-.48-.48c1.1-.89,2.13-2.12,3.35-2.88.65.74-2.42,2.93-2.87,3.36Z"/>
  <path class="cls-140" d="M487.94,330.61l-.48-.48c.36-.29,2.68-2.62,2.87-2.4.06,1.4-1.59,2.1-2.39,2.88Z"/>
  <path class="cls-85" d="M419.81,371.88l.96.48c-1.1.26-2.39,1.3-3.84.95.3-.96,2.08-1.1,2.88-1.43Z"/>
  <path class="cls-82" d="M420.29,349.8c-.98.27-2.11,1.19-3.36.95-.51-.4,1.99-1.28,2.4-1.43l.96.48Z"/>
  <path class="cls-169" d="M425.09,362.76c-1.01.28-2.19,1.01-3.36.96-.51-.41,1.99-1.27,2.4-1.44.78-.14,1.1.02.96.48Z"/>
  <path class="cls-101" d="M451,359.4c.85-.32,1.68-1.25,2.88-.95-.22.9-1.27,1.04-1.92,1.43l-.96-.48Z"/>
  <path class="cls-113" d="M480.75,308.54l-.48-.48c.53-.43.99-1.32,1.92-1.44.24,1.13-.83,1.34-1.44,1.92Z"/>
  <path class="cls-122" d="M484.59,315.74c-.35.56-.42.87-.96,1.44l-.48-.48c.66-.5.52-.5,1.44-.96Z"/>
  <path class="cls-101" d="M426.05,362.28c-.2.06-.52.36-.96.48l-.96-.48c.46-.18.96-.3,1.44-.48l.48.48Z"/>
  <path class="cls-189" d="M421.73,355.56c.42.14.41.3,0,.48-.36.11-.67.77-1.44.48.1-.87.91-.74,1.44-.95Z"/>
  <path class="cls-84" d="M415.5,341.17c.42.14.41.3,0,.48-.36.11-.67.77-1.44.48.1-.87.91-.74,1.44-.95Z"/>
  <path class="cls-68" d="M423.17,355.56c-.34.09-.95.33-1.44.48v-.48c.41-.17.95-.29,1.44-.48v.48Z"/>
  <path class="cls-151" d="M416.94,341.17c-.34.09-.95.33-1.44.48v-.48c.41-.17.95-.29,1.44-.48v.48Z"/>
  <path class="cls-37" d="M482.19,306.62c-.23-.23.44-.76.48-.24.01.17-.37.35-.48.24Z"/>
  <path class="cls-37" d="M485.07,315.26c-.23-.23.44-.76.48-.24.01.17-.37.35-.48.24Z"/>
  <path class="cls-120" d="M484.59,315.74c.07-.11-.06-.55.48-.48.07.53-.31.39-.48.48Z"/>
  <path class="cls-126" d="M380.95,404.99c.03-.44-.33-6.01.96-4.32-.27,2.42.61,5.44-.48,7.67.01-1.04.34-2.72-.48-3.36Z"/>
  <path class="cls-11" d="M382.87,445.29c-.21,1.78-.37,3.48-.48,5.28-.14.42-.3.41-.48,0-.05-1.77-.12-3.8-.02-5.55.06-1.03.49-1.1.5-1.17l.48,1.44Z"/>
  <path class="cls-1" d="M327.69,489.44c-.27,1.29-.32,2.55-.48,3.84-.78-.41-.45-1.63-.48-2.4.14-1.15.28-1.8.48-2.88l.48,1.44Z"/>
  <path class="cls-161" d="M365.12,473.12h-.48c0-1.12-.03-2.24,0-3.36.14-.42.3-.41.48,0,.03,1.12-.05,2.24,0,3.36Z"/>
  <path class="cls-67" d="M365.12,469.76h-.48c.02-.55-.2-2.4.24-2.4.48.51.22,1.69.24,2.4Z"/>
  <path class="cls-126" d="M382.39,450.57c-.04.72.26,1.89-.24,2.4-.44,0-.23-1.86-.24-2.4h.48Z"/>
  <path class="cls-36" d="M495.09,436.7c.25.17.72,2.58.51,2.82-14.52,3.02-30.2,1.09-44.13-3.58,0-.96,17.35,2.09,18.94,2.18,4.61.26,11.3.33,15.87,0,1.43-.1,8.4-1.7,8.81-1.42Z"/>
  <path class="cls-188" d="M465.39,452.01c.1.58-.54.74-1.92.48-5.46-.66-10.62-1.56-15.94-3.02-3.11-.85-6.97-1.67-9.49-3.7,9.11.6,19.12,2.1,27.35,6.23Z"/>
  <path class="cls-36" d="M447.64,441.45c8.16,1.4,15.02,2.46,23.29,3.34.72.08,1.48.11,1.66.97-8.2,1.87-18.98,1.53-25.91-3.83-.46-.55-.14-.71.96-.48Z"/>
  <path class="cls-78" d="M457.24,457.77h-7.92c-1.28,0-6.16-1.45-7.56-2.04-.95-.4-2.32-.77-2.75-1.8h7.44c1.47,0,7.44,1.81,9.01,2.51.67.3,1.6.48,1.79,1.33Z"/>
  <path class="cls-219" d="M454.36,463.52c-3.6.97-7.6,1.03-10.06-2.15-.02-1.31,4.97-.33,5.86-.11.57.14,4.71,1.59,4.21,2.26Z"/>
  <path class="cls-133" d="M465.39,452.01c.46.23,1.36.07,1.44.95-1.23.47-2.72-.4-3.36-.48l1.92-.48Z"/>
  <path class="cls-215" d="M447.64,441.45l-.96.48c-.33-.26-.97-.39-.96-.95.81-.35,1.53.41,1.92.48Z"/>
  <path class="cls-188" d="M480.75,393.95c.78-.34.93-.29.48.48-13.04,9.58-30.8,15.64-47.02,13.91l20.99-4.67c8.64-2.84,17.27-5.95,25.54-9.72Z"/>
  <path class="cls-219" d="M461.56,406.43c.74-.25.87-.24.48.48-5.19,4.92-14.8,7.47-21.79,6.68-.71-.08-2.88-.59-3.16-1.4h6.96c2.92,0,14.38-4.3,17.51-5.76Z"/>
  <path class="cls-79" d="M480.75,393.95c.8-.37,1.69-1.64,2.88-1.43-.42.94-1.6,1.33-2.4,1.91l-.48-.48Z"/>
  <path class="cls-150" d="M462.04,406.91l-.48-.48c1.38-.64,2.72-1.64.48.48Z"/>
  <path class="cls-17" d="M94.04,359.4c-.55.1-1.41.91-2.4.47-.52-.24,1.07-.85,1.44-.95l.96.48Z"/>
  <path class="cls-47" d="M95.48,308.54c.79.59,1.98.97,2.4,1.91-1.22.09-1.99-.87-2.88-1.43l.48-.48Z"/>
  <path class="cls-6" d="M105.07,274.47c-1.43-.69-1.04-.69-1.92-1.44l.48-.48c.73.82.84.93,1.44,1.92Z"/>
  <path class="cls-141" d="M103.63,305.18c.47.41,1.31.69,1.44,1.43-.92.22-1.3-.51-1.92-.95l.48-.48Z"/>
  <path class="cls-59" d="M106.51,296.54c.35.37,1.12.65,1.44,1.2l-.24.24c-.97.12-1.21-1.04-1.67-1.44h.48Z"/>
  <path class="cls-202" d="M105.07,284.55c-.33-.26-.73-.35-1.44-.96l.48-.48c.53.52.72,1.2.96,1.44Z"/>
  <path class="cls-42" d="M105.55,284.55c.32.33,1.15.4.96,1.19l-.24.24c-.39-.18-.53-.8-.72-.96v-.48Z"/>
  <path class="cls-6" d="M105.55,285.03c-.18-.14-.31-.35-.48-.48.08.08.4-.08.48,0v.48Z"/>
  <path class="cls-168" d="M105.55,274.95c.23-.23.76.44.24.48-.17.01-.35-.37-.24-.48Z"/>
  <path class="cls-89" d="M105.55,274.95c-.54.07-.4-.35-.48-.48.18.09.55-.04.48.48Z"/>
  <path class="cls-202" d="M426.53,313.82h-.48c-1.17-.6-2.23-1.29-3.36-1.92l.48-.48c1.24.82,2.18,1.53,3.36,2.4Z"/>
  <path class="cls-34" d="M431.33,309.02c1.11.7,2.62,1.33,3.36,2.39-1.48-.01-2.7-1.31-3.84-1.91l.48-.48Z"/>
  <path class="cls-30" d="M417.9,317.65l.48-.48c.65.54,1.4.97,1.91,1.68l-.22.23c-.77-.4-1.45-.97-2.16-1.43Z"/>
  <path class="cls-155" d="M438.53,303.74c.63.25,1.22.53,1.92.49v.47c-1.04.41-1.76-.31-2.4-.47l.48-.48Z"/>
  <path class="cls-84" d="M426.53,313.82c.13.09,1.93.32,1.2.96-.79.17-1.21-.72-1.68-.96h.48Z"/>
  <path class="cls-39" d="M443.32,298.94c.52.22,1.34.09,1.44.95-.77.3-1.08-.37-1.44-.48-.42-.14-.41-.3,0-.48Z"/>
  <path class="cls-106" d="M443.32,298.94v.48c-.5-.15-1.08-.38-1.44-.48v-.48c.48.18,1.03.31,1.44.48Z"/>
  <path class="cls-9" d="M205.35,390.11c-.37.91-.69.75-.96-.48-.03-.64.04-1.28,0-1.92l.48-.96c.09-1.24,0-2.58,0-3.84.8,1.9.59,5.02.48,7.2Z"/>
  <path class="cls-127" d="M205.35,390.11c-.06,1.21.48,2.24-.96,1.92-.03-.79.04-1.6,0-2.4l.96.48Z"/>
  <path class="cls-190" d="M197.67,387.23c-.01-.21-1.35-1.74.24-1.44.51.09.15.97.24,1.44h-.48Z"/>
  <path class="cls-7" d="M204.39,387.71c-.02-.32.01-.64,0-.96h.48c-.03.41-.01.83-.48.96Z"/>
  <path class="cls-182" d="M150.65,444.33c-.02-.77.29-2-.48-2.4.11-.87-.04-2.97.95-3.36l-.47,5.76Z"/>
  <path class="cls-44" d="M422.69,476.48h-.48c.05-.95-.05-1.92,0-2.88.14-.42.3-.41.48,0,.05.95-.01,1.92,0,2.88Z"/>
  <path class="cls-156" d="M422.69,473.6h-.48c.02-.45-.2-1.44.24-1.44.47.13.22,1.01.24,1.44Z"/>
  <path class="cls-171" d="M431.81,463.53c-.12,1.05.43,2.68-.48,3.36-.03-.41-.01-.83-.48-.96.17-.97.33-1.9.48-2.88.62-.64.73-.37.48.48Z"/>
  <path class="cls-147" d="M431.33,463.05c.07-.45-.05-.97,0-1.44h.95c.4.81-.45,1.64-.48,1.92l-.48-.48Z"/>
  <path class="cls-23" d="M428.93,425.62h-.48c.02-.5-.21-1.92.24-1.92.48.3.22,1.36.24,1.92Z"/>
  <path class="cls-54" d="M343.05,396.35c.67-.35.87-.21.48.48-3.87,6.13-5.85,8.02-13.68,8.63-12.81.99-23.39-3.77-31.9-12.95-.61-.61-.35-.75.48-.48,17.22,5.87,26.32,7.5,44.62,4.32Z"/>
  <path class="cls-91" d="M343.05,396.35c.27-.05.69-.79,1.44-.48.06.57-.81.71-.96.95l-.48-.48Z"/>
  <path class="cls-183" d="M298.43,392.03l-.48.48c-.29-.31-.6-.53-.96-.96h.48c.41-.05.74.4.96.48Z"/>
  <path class="cls-175" d="M297.47,391.55h-.48c-.8-.95-.14-.73.48,0Z"/>
  <path class="cls-108" d="M288.21,303.83c4.09-.63,5.61,5.74,1.7,6.55-4.89,1.01-5.87-5.91-1.7-6.55Z"/>
  <path class="cls-192" d="M306.58,306.14c.54.79,1.6,1.38,1.43,2.4-.13.2-.72-.44-.95-.48-.32-.48-.62-.97-.96-1.44l.48-.48Z"/>
  <path class="cls-185" d="M285.47,316.7l-.96-.48c.09.05.91.46.96.48Z"/>
</svg>